<svg width="22" height="22" viewBox="0 0 22 22" fill="none" xmlns="http://www.w3.org/2000/svg">
<g clip-path="url(#clip0_2007_845)">
<path d="M20.625 9.625C20.1171 9.625 19.6728 9.90172 19.4348 10.3125H18.1861C18.046 8.83704 17.4604 7.48958 16.565 6.40724L17.4507 5.52157C17.9063 5.6442 18.4182 5.52604 18.7782 5.16661C19.3144 4.63036 19.3144 3.75809 18.7782 3.22184C18.2419 2.68559 17.3696 2.68559 16.8334 3.22184C16.4746 3.58102 16.3561 4.09093 16.4784 4.54932L15.5928 5.43499C14.5104 4.53961 13.163 3.95398 11.6875 3.81391V2.56523C12.0983 2.32719 12.375 1.88289 12.375 1.375C12.375 0.616602 11.7584 0 11 0C10.2416 0 9.625 0.616602 9.625 1.375C9.625 1.88289 9.90172 2.32719 10.3125 2.56523V3.81391C8.83704 3.95398 7.48958 4.53961 6.40724 5.43499L5.52157 4.54932C5.64395 4.09088 5.52531 3.58097 5.16661 3.22184C4.63036 2.68559 3.75809 2.68559 3.22184 3.22184C2.68559 3.75809 2.68559 4.63036 3.22184 5.16661C3.58166 5.52582 4.0935 5.64429 4.54932 5.52157L5.43499 6.40724C4.53961 7.48958 3.95398 8.83704 3.81391 10.3125H2.56523C2.32719 9.90172 1.88289 9.625 1.375 9.625C0.616602 9.625 0 10.2416 0 11C0 11.7584 0.616602 12.375 1.375 12.375C1.88289 12.375 2.32719 12.0983 2.56523 11.6875H3.81391C3.95398 13.163 4.53961 14.5104 5.43499 15.5928L4.54932 16.4784C4.09093 16.3561 3.58097 16.4747 3.22184 16.8334C2.68559 17.3696 2.68559 18.2419 3.22184 18.7782C3.75908 19.3154 4.63134 19.3134 5.16661 18.7782C5.52535 18.419 5.64395 17.9091 5.52157 17.4507L6.40724 16.565C7.48958 17.4604 8.83704 18.046 10.3125 18.1861V19.4348C9.90172 19.6728 9.625 20.1171 9.625 20.625C9.625 21.3834 10.2416 22 11 22C11.7584 22 12.375 21.3834 12.375 20.625C12.375 20.1171 12.0983 19.6728 11.6875 19.4348V18.1861C13.163 18.046 14.5104 17.4604 15.5928 16.565L16.4784 17.4507C16.3561 17.9091 16.4747 18.419 16.8334 18.7782C17.3687 19.3134 18.2409 19.3154 18.7782 18.7782C19.3144 18.2419 19.3144 17.3696 18.7782 16.8334C18.419 16.4746 17.9091 16.3561 17.4507 16.4784L16.565 15.5928C17.4604 14.5104 18.046 13.163 18.1861 11.6875H19.4348C19.6728 12.0983 20.1171 12.375 20.625 12.375C21.3834 12.375 22 11.7584 22 11C22 10.2416 21.3834 9.625 20.625 9.625ZM8.72266 10.6562C8.05922 10.6562 7.51953 10.1166 7.51953 9.45312C7.51953 8.78969 8.05922 8.25 8.72266 8.25C9.38609 8.25 9.92578 8.78969 9.92578 9.45312C9.92578 10.1166 9.38609 10.6562 8.72266 10.6562ZM11.6875 14.7812C10.9291 14.7812 10.3125 14.1646 10.3125 13.4062C10.3125 12.6479 10.9291 12.0312 11.6875 12.0312C12.4459 12.0312 13.0625 12.6479 13.0625 13.4062C13.0625 14.1646 12.4459 14.7812 11.6875 14.7812ZM14.0938 9.96875C13.5253 9.96875 13.0625 9.50598 13.0625 8.9375C13.0625 8.36902 13.5253 7.90625 14.0938 7.90625C14.6622 7.90625 15.125 8.36902 15.125 8.9375C15.125 9.50598 14.6622 9.96875 14.0938 9.96875Z" fill="#68898C"/>
</g>
<defs>
<clipPath id="clip0_2007_845">
<rect width="22" height="22" fill="white"/>
</clipPath>
</defs>
</svg>
