<svg width="24" height="24" viewBox="0 0 24 24" fill="none" xmlns="http://www.w3.org/2000/svg">
<path fill-rule="evenodd" clip-rule="evenodd" d="M19.629 4.5203C19.6325 4.52027 19.6359 4.52026 19.6394 4.52027C20.1945 4.52275 20.7261 4.74435 21.1186 5.13687C21.5111 5.52938 21.7328 6.06103 21.7352 6.61607V6.61944V17.3918V17.3952C21.7328 17.9503 21.5111 18.4819 21.1186 18.8744C20.7266 19.2665 20.1958 19.488 19.6414 19.491C19.6407 19.491 19.6401 19.491 19.6394 19.491L17.9996 19.5064C17.5862 19.5103 17.2479 19.1784 17.2441 18.7649C17.2402 18.3516 17.5721 18.0133 17.9855 18.0094L19.629 17.994L19.6327 17.9939C19.7931 17.9932 19.9466 17.9292 20.0601 17.8158C20.1731 17.7028 20.2371 17.5497 20.2382 17.3898V6.62145C20.2371 6.46159 20.1731 6.30852 20.0601 6.19544C19.9476 6.08307 19.7957 6.01916 19.6368 6.01738L17.9996 6.03273C17.5862 6.03661 17.2479 5.70468 17.2441 5.29125C17.2402 4.87787 17.5721 4.53962 17.9855 4.53574L19.629 4.5203Z" fill="currentColor"/>
<path fill-rule="evenodd" clip-rule="evenodd" d="M6.76444 5.26211C6.76814 5.67549 6.43602 6.01359 6.02264 6.01729L4.30102 6.03273C4.29878 6.03278 4.29654 6.03278 4.29431 6.03278C4.02234 6.03278 3.77033 6.24583 3.77033 6.63488V17.4077C3.77033 17.7952 4.02039 18.008 4.29168 18.0094L6.00922 17.994C6.42264 17.9902 6.76075 18.3224 6.76444 18.7358C6.76814 19.1492 6.43602 19.4873 6.02264 19.491L4.30102 19.5064C4.29878 19.5065 4.29654 19.5065 4.29431 19.5065C3.08076 19.5065 2.27325 18.504 2.27325 17.4077V6.63488C2.27325 5.54014 3.07879 4.53774 4.29061 4.5357L6.00922 4.52029C6.42264 4.51659 6.76075 4.84868 6.76444 5.26211Z" fill="currentColor"/>
<path fill-rule="evenodd" clip-rule="evenodd" d="M17.9926 8.26294C18.4059 8.26294 18.7411 8.5981 18.7411 9.01148V14.9998C18.7411 15.4132 18.4059 15.7483 17.9926 15.7483C17.5791 15.7483 17.244 15.4132 17.244 14.9998V9.01148C17.244 8.5981 17.5791 8.26294 17.9926 8.26294Z" fill="currentColor"/>
<path fill-rule="evenodd" clip-rule="evenodd" d="M14.9984 6.76587C15.4118 6.76587 15.747 7.10103 15.747 7.51441V16.4969C15.747 16.9103 15.4118 17.2454 14.9984 17.2454C14.585 17.2454 14.2499 16.9103 14.2499 16.4969V7.51441C14.2499 7.10103 14.585 6.76587 14.9984 6.76587Z" fill="currentColor"/>
<path fill-rule="evenodd" clip-rule="evenodd" d="M12.0043 7.5144C12.4177 7.5144 12.7528 7.84956 12.7528 8.26294V15.7483C12.7528 16.1617 12.4177 16.4969 12.0043 16.4969C11.5908 16.4969 11.2557 16.1617 11.2557 15.7483V8.26294C11.2557 7.84956 11.5908 7.5144 12.0043 7.5144Z" fill="currentColor"/>
<path fill-rule="evenodd" clip-rule="evenodd" d="M9.01013 6.76587C9.42351 6.76587 9.75867 7.10103 9.75867 7.51441V16.4969C9.75867 16.9103 9.42351 17.2454 9.01013 17.2454C8.59671 17.2454 8.2616 16.9103 8.2616 16.4969V7.51441C8.2616 7.10103 8.59671 6.76587 9.01013 6.76587Z" fill="currentColor"/>
<path fill-rule="evenodd" clip-rule="evenodd" d="M6.01593 8.26294C6.42931 8.26294 6.76447 8.5981 6.76447 9.01148V14.9998C6.76447 15.4132 6.42931 15.7483 6.01593 15.7483C5.60251 15.7483 5.2674 15.4132 5.2674 14.9998V9.01148C5.2674 8.5981 5.60251 8.26294 6.01593 8.26294Z" fill="currentColor"/>
</svg>
