<svg width="24" height="24" viewBox="0 0 24 24" fill="none" xmlns="http://www.w3.org/2000/svg">
<path fill-rule="evenodd" clip-rule="evenodd" d="M12 3C7.0293 3 3 7.0293 3 12C3 16.9707 7.0293 21 12 21C16.9707 21 21 16.9707 21 12C21 7.0293 16.9707 3 12 3ZM15.177 15.177C15.0456 15.3084 14.8728 15.375 14.7 15.375C14.5272 15.375 14.3544 15.3093 14.223 15.177L11.523 12.477C11.3961 12.3501 11.325 12.1782 11.325 12V7.5C11.325 7.1274 11.6274 6.825 12 6.825C12.3726 6.825 12.675 7.1274 12.675 7.5V11.7201L15.177 14.2221C15.4407 14.4867 15.4407 14.9133 15.177 15.177Z" fill="currentColor"/>
</svg>
