<svg width="22" height="22" viewBox="0 0 22 22" fill="none" xmlns="http://www.w3.org/2000/svg">
<path d="M18.8508 6.85061C18.0946 5.63416 16.8957 4.96858 15.1864 4.81518C14.2059 4.72924 13.0281 5.02744 12.082 5.2685C11.6557 5.37721 11.1719 5.5001 11 5.5001C10.8281 5.5001 10.3477 5.37721 9.92578 5.2685C8.97703 5.02572 7.79625 4.72322 6.8127 4.81561C5.15711 4.97072 3.97676 5.64018 3.20332 6.86178C2.42988 8.08338 2.0625 9.83994 2.0625 12.3751C2.0625 15.0082 3.33137 17.2985 4.08762 18.429C5.01961 19.8233 6.41309 21.3126 7.52812 21.3126C8.32605 21.3126 8.99422 21.0019 9.58289 20.7265C10.4414 20.3243 11 20.2813 11 20.2813C11 20.2813 11.4727 20.2813 12.3724 20.7158C12.9615 21.0002 13.634 21.3126 14.4719 21.3126C15.614 21.3126 17.0105 19.822 17.9364 18.4272C18.6837 17.3015 19.9375 15.0185 19.9375 12.3751C19.9375 9.79697 19.5938 8.04256 18.8508 6.85061ZM9.28125 15.1251C8.71191 15.1251 8.25 14.2017 8.25 13.0626C8.25 11.9235 8.71191 11.0001 9.28125 11.0001C9.85059 11.0001 10.3125 11.9235 10.3125 13.0626C10.3125 14.2017 9.85059 15.1251 9.28125 15.1251ZM12.7188 15.1251C12.1494 15.1251 11.6875 14.2017 11.6875 13.0626C11.6875 11.9235 12.1494 11.0001 12.7188 11.0001C13.2881 11.0001 13.75 11.9235 13.75 13.0626C13.75 14.2017 13.2881 15.1251 12.7188 15.1251Z" fill="#68898C"/>
<path d="M13.9099 3.55602C15.1972 2.26953 15.125 0.695158 15.125 0.69344C15.125 0.691721 13.588 0.531877 12.2362 1.88239C10.8844 3.23289 11.0026 4.81242 11.0026 4.81242C11.0026 4.81242 12.6216 4.84293 13.9099 3.55602Z" fill="#68898C"/>
</svg>
