<svg width="22" height="22" viewBox="0 0 22 22" fill="none" xmlns="http://www.w3.org/2000/svg">
<path d="M19.25 4.125V10.5417C19.25 11.3007 18.6349 11.9167 17.875 11.9167H16.3167C16.1645 11.9167 16.0417 11.7938 16.0417 11.6417V3.02499C16.0417 2.87282 16.1645 2.75 16.3167 2.75H17.875C18.6349 2.75 19.25 3.366 19.25 4.125ZM14.3926 2.75H7.42689C5.58439 2.75 5.19013 3.51082 4.8143 4.62916L2.98096 10.1292C2.38513 11.9075 2.83439 13.75 5.59355 13.75H9.16846V16.72C9.16846 17.6367 9.62688 18.4983 10.3969 19.0025C10.6444 19.1675 10.9285 19.25 11.2035 19.25C11.781 19.25 12.3402 18.9016 12.5602 18.3058L14.6548 11.9589C14.664 11.9314 14.6685 11.902 14.6685 11.8727V3.02499C14.6675 2.87282 14.5439 2.75 14.3926 2.75Z" fill="#68898C"/>
</svg>
