<svg width="22" height="22" viewBox="0 0 22 22" fill="none" xmlns="http://www.w3.org/2000/svg">
<path d="M14.6667 19.9376H5.5C3.2835 19.9376 2.0625 18.7166 2.0625 16.5001V7.33341C2.0625 5.11691 3.2835 3.89591 5.5 3.89591H8.25C8.6295 3.89591 8.9375 4.20391 8.9375 4.58341C8.9375 4.96291 8.6295 5.27091 8.25 5.27091H5.5C4.05442 5.27091 3.4375 5.88783 3.4375 7.33341V16.5001C3.4375 17.9457 4.05442 18.5626 5.5 18.5626H14.6667C16.1123 18.5626 16.7292 17.9457 16.7292 16.5001V13.7501C16.7292 13.3706 17.0372 13.0626 17.4167 13.0626C17.7962 13.0626 18.1042 13.3706 18.1042 13.7501V16.5001C18.1042 18.7166 16.8832 19.9376 14.6667 19.9376ZM18.865 4.61091L17.3891 3.13509C16.8666 2.62176 16.0325 2.62174 15.51 3.14424L14.2725 4.39092L17.6092 7.72757L18.8558 6.49007C19.3783 5.96757 19.3783 5.13341 18.865 4.61091ZM13.3008 5.36259L7.33333 11.3576V14.6667H10.6425L16.6375 8.69924L13.3008 5.36259Z" fill="#68898C"/>
</svg>
