<svg width="24" height="24" viewBox="0 0 24 24" fill="none" xmlns="http://www.w3.org/2000/svg">
<path d="M6.9 2H17.1C17.5956 2 18 2.37442 18 2.83329V5.27755C18 5.46198 17.8391 5.61092 17.6399 5.61092H6.36006C6.16086 5.61092 6 5.46198 6 5.27755V2.83329C6 2.37442 6.4044 2 6.9 2ZM6.36826 7.70092C6.30346 7.48982 6.48603 7.27749 6.72363 7.27749H17.2764C17.514 7.27749 17.6977 7.4909 17.6317 7.702C17.3617 8.57195 16.9225 9.3807 16.3345 10.1018C15.8617 10.6817 15.6 11.3851 15.6 12.1118V20.3334C15.6 21.2534 14.7936 22 13.8 22H10.2C9.2064 22 8.4 21.2534 8.4 20.3334V12.1118C8.4 11.394 8.14322 10.6973 7.67402 10.1262C7.07642 9.39845 6.63826 8.58087 6.36826 7.70092ZM12 12.2772C11.5032 12.2772 11.1 12.6505 11.1 13.1105V15.3326C11.1 15.7926 11.5032 16.1659 12 16.1659C12.4968 16.1659 12.9 15.7926 12.9 15.3326V13.1105C12.9 12.6505 12.4968 12.2772 12 12.2772Z" fill="currentColor"/>
</svg>
