<svg width="22" height="22" viewBox="0 0 22 22" fill="none" xmlns="http://www.w3.org/2000/svg">
<path d="M11 1.1001C5.53523 1.1001 1.10001 5.53532 1.10001 11.0001C1.10001 16.4649 5.53523 20.9001 11 20.9001C16.4648 20.9001 20.9 16.4649 20.9 11.0001C20.9 5.53532 16.4648 1.1001 11 1.1001ZM3.89839 11.0001C3.89839 7.0665 7.09279 3.8721 11 3.8721C12.4784 3.8721 13.8776 4.32092 15.0128 5.11289L5.13922 15.0129C4.34721 13.8777 3.89839 12.4785 3.89839 11.0001ZM11 18.1017C9.5216 18.1017 8.12238 17.6529 6.98721 16.8609L16.8608 6.98731C17.6528 8.12252 18.1016 9.52169 18.1016 11.0001C18.1016 14.9337 14.9336 18.1017 11 18.1017Z" fill="#68898C"/>
</svg>
