<svg width="22" height="22" viewBox="0 0 22 22" fill="none" xmlns="http://www.w3.org/2000/svg">
<path d="M7.88364 11.7638H15.0707V16.0925V17.111C15.0707 19.1481 14.044 20.1666 11.9906 20.1666H5.83019C3.77673 20.1666 2.75 19.1481 2.75 17.111V4.88881C2.75 2.85177 3.77673 1.83325 5.83019 1.83325H11.9906C14.044 1.83325 15.0707 2.85177 15.0707 4.88881V5.90733V10.236H7.88364C7.45858 10.236 7.1136 10.5783 7.1136 10.9999C7.1136 11.4216 7.45858 11.7638 7.88364 11.7638ZM21.9416 10.7076C21.9026 10.6139 21.8462 10.5294 21.7753 10.4591L18.6951 7.40352C18.3943 7.1051 17.9066 7.1051 17.6057 7.40352C17.3049 7.70195 17.3049 8.18575 17.6057 8.48418L19.3717 10.236H15.0707V11.7638H19.3717L17.6057 13.5157C17.3049 13.8141 17.3049 14.2979 17.6057 14.5963C17.7556 14.745 17.9528 14.8204 18.1499 14.8204C18.3471 14.8204 18.5442 14.746 18.6941 14.5963L21.7742 11.5408C21.8451 11.4705 21.9015 11.3859 21.9406 11.2922C22.0196 11.1048 22.0197 10.895 21.9416 10.7076Z" fill="#68898C"/>
</svg>
