<svg width="294" height="116" viewBox="0 0 294 116" fill="none" xmlns="http://www.w3.org/2000/svg">
<path d="M198.098 16.1275C198.098 16.1275 197.985 30.8543 197.985 35.687C197.985 36.2625 198.545 36.2625 198.734 36.2546C198.931 36.2467 199.491 35.892 199.514 35.6555C200.036 30.6966 199.801 16.4034 199.801 16.4034C199.801 16.4034 199.869 15.8673 200.482 15.8673C201.247 15.8673 201.262 16.6478 201.262 16.6478C201.262 16.6478 200.944 30.9568 200.944 35.7264C200.944 36.0496 201.648 36.2152 201.882 36.2073C202.102 36.1994 202.73 35.9708 202.753 35.6555C203.108 30.9016 202.579 16.5769 202.579 16.5769C202.579 16.5769 202.518 15.8673 203.336 15.82C204.032 15.7727 204.07 16.6163 204.07 16.6163L204.213 35.6633C204.213 35.6633 204.191 36.365 205.19 36.2625C205.447 36.2389 205.704 35.7579 205.704 35.7579L205.561 16.4507C205.561 16.4507 205.492 15.82 206.264 15.82C206.946 15.82 206.862 16.364 206.862 16.364C206.862 16.364 208.686 33.4086 208.232 41.2214C208.164 42.3803 206.446 43.1923 205.598 44.0122C204.516 45.0607 204.236 45.4155 203.918 45.7466C203.449 46.2354 203.169 47.4653 203.207 48.096C203.426 52.1876 202.851 59.6377 203.578 66.9696C204.736 78.6059 205.417 84.905 205.417 90.9124C205.417 98.1812 197.977 98.7567 197.977 90.3921C197.977 85.4569 199.839 70.7222 199.839 70.7222L200.384 48.0092C200.384 48.0092 200.301 46.9844 199.4 45.7072C199.15 45.3524 198.734 44.7611 198.378 44.3197C197.394 43.1134 195.813 42.5301 195.737 41.5919C195.222 35.2928 195.979 22.2689 196.842 16.3561C196.887 16.0408 196.993 15.8752 197.493 15.8752C197.864 15.8831 198.098 16.1275 198.098 16.1275Z" fill="white"/>
<path d="M57.4272 83.7857C57.4272 84.2666 57.5937 84.6687 57.9191 84.9761C58.2445 85.2836 58.6683 85.4413 59.183 85.4413V85.8354H51.3347C49.8362 85.8354 48.7161 85.5753 47.9744 85.0471C47.2251 84.5189 46.7332 83.6438 46.5062 82.4139C45.5677 83.3836 44.4249 84.1641 43.0702 84.7554C41.7155 85.3467 40.2699 85.7093 38.726 85.8433C37.2275 85.9774 35.8274 85.8749 34.5256 85.5438C33.2163 85.2126 32.0886 84.6687 31.1275 83.8961C30.1663 83.1313 29.4322 82.1695 28.9175 81.0264C28.4029 79.8832 28.2364 78.5667 28.4256 77.0688C28.5694 75.7522 28.9629 74.6327 29.6138 73.7103C30.2647 72.7879 31.0594 71.9838 31.9978 71.3058C32.9287 70.6278 33.9807 70.0523 35.1462 69.595C36.3117 69.1377 37.5075 68.7278 38.7184 68.373C41.1932 67.6714 42.9794 66.9697 44.0767 66.2602C45.1741 65.5585 45.9083 64.8963 46.2867 64.2814V60.986C46.2867 58.479 45.9991 56.6105 45.4239 55.3807C44.8487 54.1508 43.6832 53.6463 41.9349 53.867C39.7931 54.0877 38.5822 54.7894 38.3022 55.9798C38.1584 56.5948 38.3022 57.1151 38.726 57.525C39.1498 57.9429 39.5434 58.3292 39.9142 58.6761C40.4289 59.157 40.8224 59.7088 41.1024 60.3238C41.3825 60.9387 41.5262 61.6167 41.5262 62.3656C41.5262 63.8162 40.9889 65.0461 39.9066 66.0552C38.8244 67.0643 37.5075 67.5689 35.9636 67.5689C34.4121 67.5689 33.0952 67.0643 32.013 66.0552C30.9307 65.0461 30.3933 63.8162 30.3933 62.3656C30.3933 61.1358 30.7415 59.969 31.4453 58.8732C32.1492 57.7773 33.1179 56.8155 34.3515 56.0035C35.5852 55.1915 37.0231 54.5529 38.6579 54.0956C40.2926 53.6305 42.0409 53.4019 43.9102 53.4019C45.7796 53.4019 47.5279 53.6305 49.1626 54.0956C50.7974 54.5529 52.2202 55.1915 53.4387 56.0035C54.6496 56.8155 55.6183 57.7694 56.3449 58.8732C57.0714 59.969 57.4347 61.1358 57.4347 62.3656V80.9554V81.4127V83.1234V83.7857H57.4272ZM45.5904 82.7293C45.7342 82.5952 45.8704 82.477 46.0142 82.3666C46.158 82.2562 46.2942 82.138 46.438 82.004C46.3926 81.6965 46.3548 81.3812 46.3321 81.05C46.3094 80.7189 46.2942 80.3799 46.2942 80.0252V77.5181V64.9357C45.6434 65.7241 44.9017 66.3942 44.0843 66.9461C43.2669 67.4979 42.4874 68.1523 41.7382 68.9249C40.9889 69.6975 40.3607 70.7066 39.8461 71.9601C39.3315 73.2136 39.0741 74.9165 39.0741 77.0688C39.0741 78.7401 39.2936 80.0488 39.7401 80.987C40.1867 81.933 40.7467 82.6031 41.4203 82.9973C42.0939 83.3915 42.8053 83.5492 43.5545 83.4625C44.3038 83.3678 44.9849 83.1234 45.5904 82.7293Z" fill="white"/>
<path d="M83.9766 53.3308C85.8006 53.3308 87.4883 53.7013 89.0549 54.4503C90.6215 55.1992 91.9762 56.2714 93.1191 57.6826C94.2619 59.0859 95.1625 60.7809 95.8134 62.7597C96.4642 64.7385 96.7972 66.9775 96.7972 69.4845C96.7972 72.0783 96.4491 74.3961 95.7452 76.438C95.0414 78.4799 94.0651 80.2064 92.8012 81.6097C91.5373 83.013 90.0312 84.0694 88.2829 84.7711C86.5347 85.4727 84.6048 85.7802 82.5008 85.6935C81.0023 85.6067 79.6627 85.2204 78.4745 84.5424C77.2863 83.8644 76.31 83.0839 75.5683 82.201V85.2362V89.6511V93.6718C75.5683 95.7846 75.1974 97.2746 74.4482 98.1576C73.6989 99.0327 72.3896 99.4742 70.5278 99.4742H62.6795V99.08C63.1942 99.08 63.6104 98.9223 63.9434 98.6227C64.2689 98.3153 64.4354 97.9211 64.4354 97.4402V89.5328V84.9208V63.2879V57.4225V55.3806C64.4354 54.8997 64.2689 54.5055 63.9434 54.1901C63.618 53.8827 63.1942 53.7329 62.6795 53.7329V53.3387H70.5278C71.8825 53.3387 72.9194 53.5594 73.6459 54.0009C74.3725 54.4424 74.8947 55.1677 75.2201 56.1768C75.644 55.9167 76.1435 55.625 76.7262 55.3175C77.309 55.01 77.9598 54.7026 78.6864 54.3951C79.4129 54.0876 80.2152 53.8354 81.1007 53.6383C81.9937 53.4333 82.9473 53.3308 83.9766 53.3308ZM79.7005 84.3138C81.5699 84.5345 83.0533 83.4151 84.1507 80.9553C85.2481 78.4956 85.7476 74.672 85.6568 69.4845C85.6113 66.9381 85.4221 64.7701 85.0967 62.9884C84.7713 61.2066 84.3399 59.7718 83.8025 58.6681C83.2652 57.5722 82.637 56.7681 81.9105 56.2635C81.1839 55.759 80.4044 55.4594 79.5643 55.3727C78.7242 55.3333 77.9447 55.4358 77.2182 55.7038C76.4916 55.964 75.8483 56.2714 75.2882 56.6262C75.4775 57.1938 75.5683 58.0295 75.5683 59.1332V63.1539V81.5466C76.1283 82.2956 76.7792 82.9184 77.5285 83.4229C78.2777 83.9275 79.0043 84.2271 79.7005 84.3138Z" fill="white"/>
<path d="M121.591 53.3308C123.415 53.3308 125.102 53.7013 126.669 54.4503C128.236 55.1992 129.59 56.2714 130.733 57.6826C131.876 59.0859 132.777 60.7809 133.428 62.7597C134.078 64.7385 134.411 66.9775 134.411 69.4845C134.411 72.0783 134.063 74.3961 133.359 76.438C132.656 78.4799 131.679 80.2064 130.415 81.6097C129.151 83.013 127.645 84.0694 125.897 84.7711C124.149 85.4727 122.219 85.7802 120.115 85.6935C118.616 85.6067 117.277 85.2204 116.089 84.5424C114.9 83.8644 113.924 83.0839 113.182 82.201V85.2362V89.6511V93.6718C113.182 95.7846 112.812 97.2746 112.062 98.1576C111.313 99.0327 110.004 99.4742 108.142 99.4742H100.294V99.08C100.808 99.08 101.225 98.9223 101.558 98.6227C101.883 98.3153 102.05 97.9211 102.05 97.4402V89.5328V84.9208V63.2879V57.4225V55.3806C102.05 54.8997 101.883 54.5055 101.558 54.1901C101.232 53.8827 100.808 53.7329 100.294 53.7329V53.3387H108.142C109.497 53.3387 110.534 53.5594 111.26 54.0009C111.987 54.4424 112.509 55.1677 112.834 56.1768C113.258 55.9167 113.758 55.625 114.34 55.3175C114.923 55.01 115.574 54.7026 116.301 54.3951C117.027 54.0876 117.829 53.8354 118.715 53.6383C119.608 53.4333 120.562 53.3308 121.591 53.3308ZM117.322 84.3138C119.192 84.5345 120.675 83.4151 121.772 80.9553C122.87 78.4956 123.369 74.672 123.279 69.4845C123.233 66.9381 123.044 64.7701 122.718 62.9884C122.393 61.2066 121.962 59.7718 121.424 58.6681C120.887 57.5722 120.259 56.7681 119.532 56.2635C118.806 55.759 118.026 55.4594 117.186 55.3727C116.346 55.3333 115.566 55.4358 114.84 55.7038C114.113 55.964 113.47 56.2714 112.91 56.6262C113.099 57.1938 113.19 58.0295 113.19 59.1332V63.1539V81.5466C113.75 82.2956 114.401 82.9184 115.15 83.4229C115.892 83.9275 116.618 84.2271 117.322 84.3138Z" fill="white"/>
<path d="M162.573 71.5895C164.064 71.5895 165.366 72.1098 166.463 73.1347C167.56 74.1675 168.113 75.3894 168.113 76.7927C168.113 78.0699 167.75 79.2446 167.023 80.3168C166.296 81.3968 165.328 82.3508 164.117 83.1864C162.898 84.0221 161.475 84.6686 159.841 85.1337C158.206 85.5989 156.458 85.8275 154.588 85.8275C152.114 85.8275 149.881 85.4018 147.898 84.5424C145.915 83.6831 144.235 82.5242 142.858 81.0499C141.48 79.5757 140.428 77.8492 139.702 75.8782C138.975 73.8994 138.619 71.7945 138.619 69.5476C138.619 67.3086 138.983 65.1958 139.702 63.217C140.428 61.2382 141.473 59.5274 142.858 58.0768C144.235 56.6262 145.915 55.4752 147.898 54.6159C149.881 53.7565 152.114 53.3308 154.588 53.3308C156.829 53.3308 158.887 53.7171 160.749 54.4818C162.618 55.2544 164.23 56.2399 165.585 57.4461C166.94 58.6523 167.992 60.032 168.733 61.5693C169.483 63.1066 169.854 64.6203 169.854 66.1182H149.608V69.5476V73.8285C149.608 76.0674 149.737 77.928 149.994 79.4023C150.252 80.8765 150.638 82.0591 151.152 82.9657C151.667 83.8644 152.31 84.503 153.082 84.8736C153.854 85.2441 154.778 85.4333 155.852 85.4333C156.602 85.4333 157.449 85.2835 158.41 84.9682C159.364 84.6607 159.962 84.0931 160.196 83.2574C160.34 82.6425 160.204 82.13 159.81 81.7122C159.417 81.2943 159.031 80.908 158.653 80.5612C157.532 79.5047 156.972 78.2512 156.972 76.8006C156.972 75.3973 157.517 74.1754 158.615 73.1426C159.712 72.1098 161.029 71.5895 162.573 71.5895ZM153.113 54.1192C151.894 54.7341 151.009 55.9009 150.449 57.6117C149.888 59.3224 149.608 61.9004 149.608 65.3219V65.7871H159.553C159.553 64.6439 159.53 63.4771 159.485 62.2946C159.44 61.112 159.296 59.9847 159.061 58.9361C158.827 57.8797 158.463 56.9337 157.971 56.098C157.479 55.2623 156.813 54.608 155.973 54.1192C155.883 54.0719 155.716 54.0088 155.481 53.9221C155.247 53.8354 154.944 53.7881 154.573 53.7881C154.202 53.7881 153.885 53.8354 153.627 53.9221C153.377 54.0167 153.203 54.0798 153.113 54.1192Z" fill="white"/>
<path d="M192.271 82.9971C191.196 83.6988 189.932 84.3453 188.487 84.9444C187.041 85.5357 185.52 85.8353 183.931 85.8353C182.712 85.8353 181.569 85.6855 180.495 85.3701C179.42 85.0627 178.489 84.566 177.694 83.888C176.9 83.21 176.271 82.327 175.802 81.247C175.333 80.1669 175.098 78.8661 175.098 77.3287V59.0622V55.3726C175.098 54.8917 174.932 54.4975 174.606 54.1822C174.281 53.8747 173.857 53.7249 173.343 53.7249V53.3307C174.697 53.3307 176.082 53.1415 177.513 52.771C178.935 52.4004 180.23 51.8801 181.403 51.2179C182.568 50.5557 183.56 49.7909 184.377 48.908C185.194 48.0329 185.671 47.0868 185.815 46.0698H186.239V53.3228H190.719V53.717H186.239V55.3647V60.0476V78.7715C186.239 80.3088 186.428 81.4519 186.799 82.2009C187.17 82.9498 187.654 83.4071 188.237 83.5884C188.82 83.7619 189.471 83.7224 190.197 83.4544C190.924 83.1942 191.635 82.8631 192.331 82.4689L192.271 82.9971Z" fill="white"/>
<path d="M232.897 82.9971C231.822 83.6988 230.559 84.3453 229.113 84.9444C227.667 85.5357 226.146 85.8353 224.557 85.8353C223.338 85.8353 222.196 85.6855 221.121 85.3701C220.046 85.0627 219.115 84.566 218.321 83.888C217.526 83.21 216.898 82.327 216.429 81.247C215.959 80.1669 215.725 78.8661 215.725 77.3287V59.0622V55.3726C215.725 54.8917 215.558 54.4975 215.233 54.1822C214.907 53.8747 214.484 53.7249 213.969 53.7249V53.3307C215.324 53.3307 216.709 53.1415 218.139 52.771C219.562 52.4004 220.856 51.8801 222.029 51.2179C223.195 50.5557 224.186 49.7909 225.003 48.908C225.821 48.0329 226.298 47.0868 226.441 46.0698H226.865V53.3228H231.346V53.717H226.865V55.3647V60.0476V78.7715C226.865 80.3088 227.054 81.4519 227.425 82.2009C227.796 82.9498 228.28 83.4071 228.863 83.5884C229.446 83.7619 230.097 83.7224 230.823 83.4544C231.55 83.1942 232.261 82.8631 232.958 82.4689L232.897 82.9971Z" fill="white"/>
<path d="M258.326 71.5895C259.817 71.5895 261.119 72.1098 262.217 73.1347C263.314 74.1675 263.866 75.3894 263.866 76.7927C263.866 78.0699 263.503 79.2446 262.777 80.3168C262.05 81.3968 261.081 82.3508 259.87 83.1864C258.652 84.0221 257.229 84.6686 255.594 85.1337C253.96 85.5989 252.211 85.8275 250.342 85.8275C247.867 85.8275 245.635 85.4018 243.652 84.5424C241.669 83.6831 239.981 82.5242 238.611 81.0499C237.234 79.5757 236.182 77.8492 235.455 75.8782C234.729 73.8994 234.373 71.7945 234.373 69.5476C234.373 67.3086 234.736 65.1958 235.455 63.217C236.182 61.2382 237.226 59.5274 238.611 58.0768C239.989 56.6262 241.669 55.4752 243.652 54.6159C245.635 53.7565 247.867 53.3308 250.342 53.3308C252.582 53.3308 254.641 53.7171 256.503 54.4818C258.372 55.2544 259.984 56.2399 261.339 57.4461C262.693 58.6523 263.745 60.032 264.487 61.5693C265.236 63.1066 265.607 64.6203 265.607 66.1182H245.362V69.5476V73.8285C245.362 76.0674 245.491 77.928 245.748 79.4023C246.005 80.8765 246.391 82.0591 246.906 82.9657C247.421 83.8644 248.064 84.503 248.836 84.8735C249.608 85.2441 250.531 85.4333 251.606 85.4333C252.355 85.4333 253.203 85.2835 254.164 84.9682C255.118 84.6607 255.715 84.0931 255.95 83.2574C256.094 82.6425 255.958 82.13 255.564 81.7122C255.17 81.2943 254.785 80.908 254.406 80.5612C253.286 79.5047 252.726 78.2512 252.726 76.8006C252.726 75.3973 253.271 74.1754 254.368 73.1426C255.466 72.1098 256.783 71.5895 258.326 71.5895ZM248.866 54.1192C247.648 54.7341 246.762 55.9009 246.202 57.6117C245.642 59.3224 245.362 61.9004 245.362 65.3219V65.7871H255.307C255.307 64.6439 255.284 63.4771 255.239 62.2946C255.193 61.112 255.049 59.9847 254.815 58.9361C254.58 57.8797 254.217 56.9337 253.725 56.098C253.233 55.2623 252.567 54.608 251.727 54.1192C251.636 54.0719 251.47 54.0088 251.235 53.9221C251 53.8354 250.698 53.7881 250.327 53.7881C249.956 53.7881 249.638 53.8354 249.381 53.9221C249.139 54.0167 248.965 54.0798 248.866 54.1192Z" fill="white"/>
<path d="M108.24 29.309C108.308 30.0579 108.619 30.7753 109.186 31.4454C109.754 32.1156 110.443 32.8014 111.26 33.4873C112.077 34.1732 112.948 34.8827 113.879 35.6002C114.81 36.3176 115.672 37.1059 116.475 37.9495C117.269 38.7931 117.935 39.6997 118.473 40.6694C119.002 41.6391 119.267 42.7191 119.267 43.9096C119.267 44.9424 119.04 45.8569 118.594 46.6531C118.147 47.4494 117.519 48.1274 116.724 48.6713C115.93 49.2232 114.976 49.6332 113.879 49.917C112.781 50.2008 111.601 50.3427 110.337 50.3427C109.141 50.3427 108.013 50.1771 106.969 49.8539C105.924 49.5228 105.009 49.0734 104.222 48.49C103.442 47.9145 102.821 47.2286 102.375 46.4481C101.928 45.6677 101.701 44.8241 101.701 43.9096C101.701 42.9084 102.087 42.0411 102.859 41.3001C103.631 40.5669 104.57 40.1964 105.675 40.1964C106.78 40.1964 107.718 40.5669 108.483 41.3001C109.255 42.0333 109.64 42.9084 109.64 43.9096C109.64 44.6901 109.444 45.3681 109.043 45.9278C108.876 46.1801 108.702 46.3851 108.52 46.5349C108.339 46.6925 108.165 46.866 107.998 47.0552C107.635 47.4021 107.431 47.749 107.4 48.1116C107.37 48.4743 107.484 48.8054 107.748 49.1207C108.346 49.7751 109.224 50.1062 110.382 50.1062C110.776 50.1062 111.2 50.0746 111.639 50.0116C112.085 49.9485 112.486 49.8224 112.849 49.6332C113.213 49.444 113.508 49.1601 113.735 48.7896C113.962 48.4112 114.083 47.9145 114.083 47.2838C114.083 46.2826 113.795 45.3444 113.213 44.4693C112.63 43.5942 111.919 42.7664 111.078 41.9781C110.231 41.1976 109.307 40.425 108.293 39.676C107.287 38.9271 106.356 38.1624 105.508 37.3976C104.661 36.6329 103.949 35.8367 103.374 35.001C102.791 34.1732 102.504 33.2745 102.504 32.3048C102.504 31.5558 102.716 30.8542 103.147 30.2156C103.578 29.577 104.176 29.033 104.941 28.5994C105.705 28.1579 106.583 27.8189 107.574 27.5667C108.566 27.3144 109.648 27.1882 110.806 27.1882C111.533 27.1882 112.206 27.2513 112.819 27.3774C113.432 27.5036 114.023 27.6218 114.583 27.7322C115.15 27.8426 115.725 27.9057 116.323 27.9214C116.921 27.9372 117.587 27.8189 118.314 27.5667V33.2035H118.064C117.966 32.6122 117.731 31.9736 117.368 31.3035C117.004 30.6334 116.512 30.0027 115.892 29.4272C115.279 28.8517 114.545 28.3708 113.697 27.9924C112.849 27.614 111.896 27.4326 110.829 27.4326C110.064 27.4326 109.429 27.6061 108.929 27.953C108.437 28.292 108.203 28.7492 108.24 29.309Z" fill="white"/>
<path d="M140.92 48.892C140.92 49.2389 141.034 49.5148 141.268 49.7356C141.503 49.9563 141.798 50.0667 142.169 50.0667V50.3505H136.584C135.516 50.3505 134.722 50.1613 134.184 49.7908C133.655 49.4123 133.299 48.7895 133.14 47.9144C132.474 48.6003 131.657 49.1601 130.695 49.5779C129.734 50.0036 128.697 50.2559 127.6 50.3505C126.533 50.4451 125.534 50.3741 124.603 50.1376C123.672 49.9011 122.862 49.5148 122.181 48.963C121.5 48.419 120.978 47.7331 120.607 46.9211C120.244 46.1091 120.123 45.1709 120.259 44.1066C120.357 43.1684 120.637 42.3722 121.106 41.7099C121.576 41.0556 122.136 40.4801 122.802 39.9992C123.468 39.5104 124.217 39.1083 125.05 38.7772C125.882 38.4461 126.73 38.1623 127.592 37.91C129.356 37.4133 130.627 36.9088 131.407 36.4042C132.186 35.9075 132.709 35.4345 132.981 34.993V32.6437C132.981 30.862 132.777 29.5296 132.368 28.6545C131.959 27.7794 131.134 27.4168 129.886 27.5745C128.357 27.7321 127.494 28.2288 127.297 29.0802C127.199 29.5217 127.297 29.8844 127.6 30.184C127.903 30.4835 128.183 30.7516 128.448 31.0039C128.811 31.3507 129.099 31.7371 129.295 32.1785C129.492 32.62 129.598 33.1009 129.598 33.637C129.598 34.6698 129.212 35.5449 128.44 36.2623C127.668 36.9797 126.73 37.3424 125.632 37.3424C124.527 37.3424 123.589 36.9797 122.817 36.2623C122.045 35.5449 121.659 34.6619 121.659 33.637C121.659 32.7619 121.909 31.9341 122.408 31.1458C122.908 30.3653 123.596 29.6794 124.482 29.1039C125.36 28.5284 126.389 28.0711 127.547 27.74C128.713 27.4089 129.961 27.2512 131.293 27.2512C132.625 27.2512 133.874 27.4168 135.032 27.74C136.198 28.0711 137.212 28.5205 138.074 29.1039C138.937 29.6873 139.626 30.3653 140.148 31.1458C140.663 31.9263 140.92 32.7619 140.92 33.637V46.8817V47.2128V48.4348V48.892ZM132.489 48.1352C132.587 48.0406 132.686 47.9538 132.792 47.875C132.89 47.7962 132.989 47.7095 133.095 47.6148C133.064 47.3941 133.034 47.1655 133.019 46.9368C133.004 46.7003 132.996 46.4638 132.996 46.2115V44.4298V35.4582C132.527 36.0179 132.005 36.4988 131.422 36.893C130.839 37.2872 130.279 37.7523 129.749 38.3042C129.22 38.856 128.766 39.5735 128.402 40.4643C128.039 41.3552 127.85 42.5693 127.85 44.1066C127.85 45.297 128.009 46.2273 128.327 46.8974C128.644 47.5675 129.038 48.0485 129.522 48.3323C130.007 48.6161 130.514 48.7265 131.044 48.6634C131.573 48.5924 132.058 48.419 132.489 48.1352Z" fill="white"/>
<path d="M154.543 17.4756C155.807 17.4756 156.972 17.6411 158.039 17.9723C159.107 18.3034 160.015 18.7606 160.787 19.3598C161.551 19.9511 162.141 20.6448 162.558 21.4253C162.974 22.2058 163.178 23.0415 163.178 23.9166C163.178 24.9178 162.785 25.785 162.005 26.5261C161.226 27.2593 160.287 27.6298 159.19 27.6298C158.123 27.6298 157.199 27.2593 156.42 26.5261C155.64 25.7929 155.247 24.9257 155.247 23.9166C155.247 22.8838 155.648 21.993 156.443 21.2361C156.707 20.9838 156.98 20.7158 157.268 20.4162C157.548 20.1166 157.638 19.754 157.54 19.3125C157.404 18.7843 157.101 18.398 156.617 18.1615C156.132 17.925 155.693 17.8067 155.292 17.8067C154.059 17.8067 153.256 18.3743 152.87 19.5175C152.484 20.6606 152.295 22.4817 152.295 24.9888V32.0762V33.7633H153.589C154.687 33.7633 155.618 33.4007 156.382 32.6833C157.146 31.9659 157.532 31.0829 157.532 30.0501H157.835V37.7525H157.532C157.532 36.7197 157.146 35.8446 156.382 35.1193C155.618 34.4019 154.687 34.0393 153.589 34.0393H152.295V48.8764C152.295 49.2233 152.409 49.4992 152.643 49.72C152.878 49.9407 153.173 50.0511 153.544 50.0511V50.3349H143.917H143.122V50.0511C143.486 50.0511 143.788 49.9407 144.023 49.72C144.258 49.4992 144.371 49.2233 144.371 48.8764V47.5598V27.6692C144.371 24.4448 145.257 21.9378 147.043 20.156C148.814 18.3664 151.319 17.4756 154.543 17.4756Z" fill="white"/>
<path d="M176.695 40.2044C177.762 40.2044 178.686 40.5749 179.465 41.3081C180.245 42.0413 180.638 42.9164 180.638 43.9176C180.638 44.8243 180.381 45.6599 179.866 46.4325C179.352 47.1973 178.663 47.8832 177.793 48.4744C176.93 49.0657 175.916 49.5308 174.75 49.862C173.585 50.1931 172.336 50.3508 171.011 50.3508C169.248 50.3508 167.659 50.0433 166.243 49.4362C164.828 48.8292 163.632 47.9935 162.649 46.945C161.665 45.8965 160.915 44.6666 160.401 43.2633C159.886 41.8521 159.629 40.3542 159.629 38.7538C159.629 37.1534 159.886 35.6555 160.401 34.2443C160.915 32.8331 161.665 31.6112 162.649 30.5784C163.632 29.5456 164.828 28.7257 166.243 28.1108C167.659 27.4959 169.248 27.1963 171.011 27.1963C172.608 27.1963 174.069 27.4722 175.401 28.0162C176.733 28.5681 177.876 29.2697 178.845 30.129C179.806 30.9884 180.555 31.9659 181.092 33.0618C181.622 34.1576 181.887 35.2377 181.887 36.302H167.47V38.7459V41.7969C167.47 43.3973 167.56 44.7139 167.742 45.7624C167.924 46.811 168.196 47.6545 168.567 48.301C168.93 48.9396 169.392 49.3968 169.937 49.6649C170.489 49.9329 171.14 50.0669 171.905 50.0669C172.434 50.0669 173.04 49.9566 173.728 49.7358C174.41 49.5151 174.833 49.113 175 48.5138C175.098 48.0724 175.008 47.7097 174.727 47.4101C174.447 47.1105 174.167 46.8425 173.903 46.5902C173.108 45.8413 172.707 44.9504 172.707 43.9098C172.707 42.9085 173.1 42.0413 173.88 41.3003C174.659 40.575 175.598 40.2044 176.695 40.2044ZM169.959 27.7639C169.097 28.2054 168.461 29.0332 168.06 30.2552C167.659 31.4771 167.462 33.3062 167.462 35.7501V36.0812H174.546C174.546 35.2692 174.531 34.4414 174.493 33.59C174.463 32.7464 174.357 31.9502 174.19 31.1933C174.024 30.4365 173.766 29.7664 173.418 29.1751C173.07 28.5838 172.593 28.1108 171.995 27.7639C171.927 27.7324 171.814 27.6851 171.647 27.622C171.481 27.5589 171.261 27.5274 170.996 27.5274C170.731 27.5274 170.504 27.5589 170.323 27.622C170.149 27.6851 170.028 27.7324 169.959 27.7639Z" fill="white"/>
</svg>
