<svg width="59" height="55" viewBox="0 0 59 55" fill="none" xmlns="http://www.w3.org/2000/svg">
<path d="M25.1708 26.1257C25.1802 26.1253 25.1893 26.1253 25.1988 26.1257C25.2016 26.1257 25.2044 26.1257 25.2075 26.126C25.217 26.1271 25.2264 26.1281 25.2358 26.1295C25.2449 26.1306 25.254 26.1316 25.2635 26.1334C25.2729 26.1351 25.282 26.1369 25.2907 26.1393C25.2988 26.1407 25.3072 26.1425 25.3152 26.1446C25.3166 26.1446 25.3177 26.1446 25.3187 26.1446C25.3215 26.1456 25.3243 26.147 25.3271 26.1484C25.3394 26.1519 25.3513 26.1561 25.3635 26.1607C25.3722 26.1638 25.3806 26.1673 25.389 26.1712C25.3978 26.1747 25.4062 26.1785 25.4149 26.1827C25.423 26.1869 25.4314 26.1911 25.4394 26.1956C25.4474 26.2002 25.4555 26.2044 25.4635 26.2093C25.4712 26.2142 25.4789 26.2191 25.4866 26.2247C25.4943 26.2299 25.502 26.2352 25.5093 26.2411C25.5167 26.2467 25.5237 26.2526 25.5307 26.2586C25.5377 26.2645 25.5447 26.2708 25.5513 26.2771C25.558 26.2834 25.5646 26.2901 25.5709 26.2967C25.5776 26.3034 25.5838 26.31 25.5898 26.317C25.5957 26.324 25.6017 26.3313 25.6076 26.3387C25.6136 26.346 25.6192 26.3534 25.6244 26.3611C25.6297 26.3684 25.6349 26.3761 25.6398 26.3842C25.6451 26.3919 25.6496 26.3999 25.6541 26.4079C25.6587 26.416 25.6629 26.4244 25.6671 26.4328C25.6713 26.4408 25.6751 26.4492 25.679 26.4576C25.6828 26.4664 25.6863 26.4747 25.6898 26.4835C25.693 26.4922 25.6961 26.501 25.6989 26.5097C25.7017 26.5185 25.7045 26.5276 25.707 26.5363C25.7094 26.545 25.7119 26.5541 25.7136 26.5629C25.7157 26.572 25.7175 26.5811 25.7189 26.5905C25.7206 26.5996 25.722 26.6087 25.723 26.6181C25.7244 26.6276 25.7258 26.6367 25.7265 26.6461C25.7269 26.6552 25.7269 26.6643 25.7265 26.6738C25.7265 26.6773 25.7265 26.6808 25.7265 26.6846C25.7269 26.6937 25.7269 26.7028 25.7265 26.7119C25.7265 26.7147 25.7265 26.7178 25.7262 26.7206C25.7251 26.7297 25.7241 26.7388 25.7223 26.7483C25.7213 26.7577 25.7202 26.7668 25.7189 26.7762C25.7171 26.7853 25.715 26.7944 25.7129 26.8039C25.7115 26.8123 25.7098 26.8203 25.7077 26.8287C25.7077 26.8301 25.7077 26.8311 25.7077 26.8325C25.7063 26.8353 25.7052 26.8381 25.7042 26.8406C25.7003 26.8528 25.6965 26.8651 25.6919 26.877C25.6888 26.8857 25.6853 26.8945 25.6814 26.9028C25.6779 26.9112 25.6744 26.9196 25.6702 26.928C25.666 26.9364 25.6618 26.9445 25.6573 26.9525C25.6527 26.9606 25.6482 26.9689 25.6433 26.9766C25.6384 26.9847 25.6335 26.9924 25.6283 27.0001C25.623 27.0078 25.6178 27.0151 25.6122 27.0228C25.6066 27.0302 25.6006 27.0372 25.5947 27.0441C25.5887 27.0511 25.5824 27.0581 25.5762 27.0648C25.5699 27.0718 25.5632 27.0781 25.5566 27.0844C25.5499 27.091 25.5429 27.0973 25.5359 27.1033C25.5289 27.1092 25.5216 27.1151 25.5142 27.1211C25.5069 27.1267 25.4996 27.1323 25.4919 27.1379C25.4842 27.1431 25.4768 27.1484 25.4688 27.1533C25.4611 27.1582 25.453 27.1631 25.445 27.1676C25.4369 27.1722 25.4286 27.1764 25.4205 27.1805C25.4121 27.1847 25.4037 27.1889 25.3953 27.1928C25.3869 27.1966 25.3785 27.2001 25.3698 27.2033C25.3611 27.2068 25.3523 27.2099 25.3436 27.2131C25.3348 27.2159 25.3257 27.2187 25.3166 27.2208C25.3075 27.2232 25.2988 27.2257 25.2897 27.2278C25.2806 27.2299 25.2715 27.2316 25.2624 27.233C25.2533 27.2344 25.2442 27.2358 25.2348 27.2372C25.2257 27.2386 25.2166 27.2397 25.2072 27.2407C25.1977 27.2411 25.1886 27.2411 25.1795 27.2407C25.176 27.2407 25.1722 27.2411 25.1687 27.2411C25.1592 27.2411 25.1501 27.2411 25.1407 27.2411C25.1379 27.2411 25.1351 27.2407 25.1323 27.2407C25.1229 27.2397 25.1134 27.2386 25.104 27.2372C25.0949 27.2362 25.0858 27.2351 25.0767 27.2334C25.0676 27.2316 25.0585 27.2299 25.0498 27.2274C25.0414 27.2257 25.033 27.2243 25.0249 27.2222C25.0235 27.2222 25.0225 27.2222 25.0214 27.2222C25.0186 27.2208 25.0158 27.2197 25.0134 27.2183C25.0008 27.2148 24.9886 27.2106 24.9767 27.2061C24.9679 27.2029 24.9595 27.1994 24.9511 27.1956C24.9424 27.1921 24.934 27.1879 24.9256 27.1841C24.9172 27.1799 24.9092 27.1757 24.9011 27.1711C24.8927 27.1666 24.885 27.1624 24.877 27.1575C24.8689 27.1526 24.8612 27.1477 24.8536 27.1421C24.8459 27.1368 24.8382 27.1312 24.8308 27.1256C24.8235 27.12 24.8165 27.1141 24.8091 27.1082C24.8021 27.1022 24.7951 27.0963 24.7885 27.09C24.7819 27.0837 24.7752 27.077 24.7689 27.0704C24.7626 27.0637 24.7563 27.0571 24.75 27.0504C24.7437 27.0434 24.7381 27.0361 24.7322 27.0291C24.7266 27.0218 24.721 27.0144 24.7154 27.0067C24.7102 26.999 24.7049 26.9913 24.7 26.9836C24.6948 26.9759 24.6902 26.9679 24.6857 26.9599C24.6811 26.9518 24.6769 26.9434 24.6727 26.935C24.6685 26.927 24.6643 26.9186 24.6608 26.9102C24.657 26.9018 24.6538 26.8934 24.6503 26.8847C24.6469 26.8759 24.6437 26.8672 24.6406 26.8584C24.6378 26.8497 24.6353 26.8409 24.6329 26.8322C24.6304 26.8231 24.628 26.814 24.6259 26.8053C24.6238 26.7962 24.622 26.7871 24.6206 26.7776C24.6189 26.7685 24.6175 26.7594 24.6164 26.7504C24.615 26.7409 24.6136 26.7318 24.6126 26.7224C24.6122 26.7133 24.6122 26.7042 24.6126 26.6947C24.6126 26.6912 24.6126 26.6874 24.6126 26.6839C24.6122 26.6748 24.6122 26.6654 24.6126 26.6559C24.6126 26.6531 24.6126 26.6503 24.6129 26.6475C24.614 26.6381 24.615 26.6286 24.6168 26.6192C24.6178 26.6101 24.6189 26.601 24.6203 26.5916C24.622 26.5825 24.6241 26.5734 24.6262 26.5639C24.6276 26.5555 24.6294 26.5475 24.6315 26.5391C24.6315 26.5377 24.6315 26.5367 24.6315 26.5356C24.6325 26.5328 24.6339 26.53 24.635 26.5276C24.6388 26.5153 24.6427 26.5031 24.6472 26.4912C24.6503 26.4824 24.6538 26.4737 24.6577 26.4653C24.6612 26.4569 24.665 26.4485 24.6689 26.4401C24.6731 26.4317 24.6773 26.4237 24.6818 26.4156C24.686 26.4076 24.6909 26.3995 24.6958 26.3915C24.7007 26.3838 24.7056 26.3761 24.7109 26.3684C24.7161 26.3607 24.7217 26.353 24.7269 26.3457C24.7325 26.3383 24.7385 26.3313 24.7444 26.324C24.7504 26.317 24.7567 26.3097 24.763 26.303C24.7693 26.296 24.7759 26.2897 24.7826 26.2834C24.7892 26.2768 24.7958 26.2705 24.8028 26.2645C24.8098 26.2586 24.8172 26.2526 24.8245 26.2471C24.8319 26.2415 24.8392 26.2359 24.8469 26.2303C24.8546 26.225 24.8623 26.2198 24.8703 26.2145C24.878 26.2096 24.8861 26.2047 24.8941 26.2002C24.9022 26.1956 24.9102 26.1914 24.9186 26.1872C24.927 26.183 24.9354 26.1788 24.9438 26.175C24.9522 26.1712 24.9609 26.168 24.9697 26.1645C24.9781 26.161 24.9868 26.1579 24.9956 26.1551C25.0043 26.1523 25.0134 26.1495 25.0221 26.1474C25.0312 26.1449 25.0403 26.1425 25.0494 26.1404C25.0585 26.1386 25.0676 26.1369 25.0763 26.1351C25.0858 26.1334 25.0949 26.132 25.1043 26.1309C25.1134 26.1295 25.1225 26.1281 25.1316 26.1271C25.1411 26.1267 25.1501 26.1267 25.1596 26.1271C25.1631 26.1271 25.1666 26.1267 25.1701 26.1267L25.1708 26.1257Z" fill="white"/>
<path d="M25.1708 26.1257C25.1802 26.1253 25.1893 26.1253 25.1988 26.1257C25.2016 26.1257 25.2044 26.1257 25.2075 26.126C25.217 26.1271 25.2264 26.1281 25.2358 26.1295C25.2449 26.1306 25.254 26.1316 25.2635 26.1334C25.2729 26.1351 25.282 26.1369 25.2907 26.1393C25.2988 26.1407 25.3072 26.1425 25.3152 26.1446C25.3166 26.1446 25.3177 26.1446 25.3187 26.1446C25.3215 26.1456 25.3243 26.147 25.3271 26.1484C25.3394 26.1519 25.3513 26.1561 25.3635 26.1606C25.3722 26.1638 25.3806 26.1673 25.389 26.1711C25.3978 26.1746 25.4062 26.1785 25.4149 26.1827C25.423 26.1869 25.4314 26.1911 25.4394 26.1956C25.4474 26.2002 25.4555 26.2044 25.4635 26.2093C25.4712 26.2142 25.4789 26.2191 25.4866 26.2247C25.4943 26.2299 25.502 26.2351 25.5093 26.2411C25.5167 26.2467 25.5237 26.2526 25.5307 26.2586C25.5377 26.2645 25.5447 26.2708 25.5513 26.2771C25.558 26.2834 25.5646 26.2901 25.5709 26.2967C25.5776 26.3033 25.5838 26.31 25.5898 26.317C25.5957 26.324 25.6017 26.3313 25.6076 26.3387C25.6136 26.346 25.6192 26.3534 25.6244 26.3611C25.6297 26.3684 25.6349 26.3761 25.6398 26.3841C25.6451 26.3918 25.6496 26.3999 25.6541 26.4079C25.6587 26.416 25.6629 26.4244 25.6671 26.4328C25.6713 26.4408 25.6751 26.4492 25.679 26.4576C25.6828 26.4663 25.6863 26.4747 25.6898 26.4835C25.693 26.4922 25.6961 26.501 25.6989 26.5097C25.7017 26.5184 25.7045 26.5275 25.707 26.5363C25.7094 26.545 25.7119 26.5541 25.7136 26.5629C25.7157 26.572 25.7175 26.5811 25.7189 26.5905C25.7206 26.5996 25.722 26.6087 25.723 26.6181C25.7244 26.6276 25.7258 26.6367 25.7265 26.6461C25.7269 26.6552 25.7269 26.6643 25.7265 26.6737C25.7265 26.6772 25.7265 26.6807 25.7265 26.6846C25.7269 26.6937 25.7269 26.7028 25.7265 26.7119C25.7265 26.7147 25.7265 26.7178 25.7262 26.7206C25.7251 26.7297 25.7241 26.7388 25.7223 26.7482C25.7213 26.7577 25.7202 26.7671 25.7189 26.7762C25.7171 26.7857 25.715 26.7948 25.7129 26.8039C25.7115 26.8119 25.7098 26.8203 25.7077 26.8283C25.7077 26.8297 25.7077 26.8308 25.7077 26.8322C25.7063 26.835 25.7052 26.8378 25.7042 26.8402C25.7003 26.8525 25.6965 26.8647 25.6919 26.8766C25.6888 26.8853 25.6853 26.8941 25.6814 26.9025C25.6779 26.9109 25.6744 26.9193 25.6702 26.9277C25.666 26.9361 25.6618 26.9441 25.6573 26.9521C25.6527 26.9602 25.6482 26.9686 25.6433 26.9763C25.6384 26.9843 25.6335 26.992 25.6283 26.9997C25.623 27.0074 25.6178 27.0148 25.6122 27.0224C25.6066 27.0298 25.6006 27.0368 25.5947 27.0438C25.5887 27.0508 25.5824 27.0578 25.5762 27.0644C25.5699 27.0714 25.5632 27.0777 25.5566 27.084C25.5499 27.0906 25.5429 27.0969 25.5359 27.1029C25.5289 27.1088 25.5216 27.1148 25.5142 27.1207C25.5069 27.1263 25.4996 27.1319 25.4919 27.1375C25.4842 27.1428 25.4768 27.148 25.4688 27.1529C25.4611 27.1578 25.453 27.1627 25.445 27.1672C25.4369 27.1718 25.4286 27.176 25.4205 27.1802C25.4121 27.1844 25.4037 27.1886 25.3953 27.1924C25.3869 27.1963 25.3785 27.1998 25.3698 27.2029C25.3611 27.2064 25.3523 27.2096 25.3436 27.2127C25.3348 27.2155 25.3257 27.2183 25.3166 27.2204C25.3075 27.2229 25.2988 27.225 25.2897 27.2271C25.2806 27.2292 25.2715 27.2309 25.2624 27.2323C25.2533 27.2341 25.2442 27.2354 25.2348 27.2365C25.2257 27.2379 25.2166 27.2393 25.2072 27.2403C25.1977 27.2407 25.1886 27.2407 25.1795 27.2403C25.176 27.2403 25.1722 27.2403 25.1687 27.2403C25.1592 27.2407 25.1501 27.2407 25.1407 27.2403C25.1379 27.2403 25.1351 27.2403 25.1323 27.24C25.1229 27.2389 25.1134 27.2379 25.104 27.2361C25.0949 27.2351 25.0858 27.2337 25.0767 27.2326C25.0676 27.2309 25.0585 27.2288 25.0498 27.2267C25.0414 27.2253 25.033 27.2236 25.0249 27.2215C25.0235 27.2215 25.0225 27.2215 25.0214 27.2215C25.0186 27.2201 25.0158 27.219 25.0134 27.218C25.0008 27.2145 24.9886 27.2103 24.9767 27.2057C24.9679 27.2026 24.9595 27.1991 24.9511 27.1952C24.9424 27.1917 24.934 27.1879 24.9256 27.1837C24.9172 27.1795 24.9092 27.1753 24.9011 27.1707C24.8927 27.1662 24.885 27.1616 24.877 27.1571C24.8689 27.1522 24.8612 27.1473 24.8536 27.1421C24.8459 27.1368 24.8382 27.1316 24.8308 27.1256C24.8235 27.12 24.8165 27.1144 24.8091 27.1081C24.8021 27.1022 24.7951 27.0962 24.7885 27.0899C24.7819 27.0837 24.7752 27.077 24.7689 27.0704C24.7626 27.0637 24.7563 27.0571 24.75 27.0504C24.7437 27.0434 24.7381 27.0361 24.7322 27.0287C24.7266 27.0214 24.721 27.0141 24.7154 27.0064C24.7102 26.999 24.7049 26.9913 24.7 26.9833C24.6948 26.9756 24.6902 26.9675 24.6857 26.9595C24.6811 26.9514 24.6769 26.9431 24.6727 26.9347C24.6685 26.9266 24.6643 26.9182 24.6608 26.9098C24.657 26.9014 24.6538 26.893 24.6503 26.8843C24.6469 26.8755 24.6437 26.8668 24.6406 26.8581C24.6378 26.8493 24.6353 26.8406 24.6329 26.8318C24.6304 26.8227 24.628 26.8136 24.6259 26.8045C24.6238 26.7955 24.622 26.7864 24.6206 26.7769C24.6189 26.7678 24.6175 26.7587 24.6164 26.7493C24.615 26.7402 24.6136 26.7307 24.6126 26.7217C24.6122 26.7126 24.6122 26.7031 24.6126 26.694C24.6126 26.6905 24.6126 26.687 24.6126 26.6835C24.6122 26.6741 24.6122 26.6646 24.6126 26.6552C24.6126 26.6524 24.6126 26.6496 24.6129 26.6468C24.614 26.6374 24.615 26.6279 24.6168 26.6185C24.6178 26.6094 24.6189 26.6003 24.6203 26.5908C24.622 26.5818 24.6241 26.5727 24.6262 26.5632C24.6276 26.5552 24.6294 26.5468 24.6315 26.5387C24.6315 26.5377 24.6315 26.5363 24.6315 26.5349C24.6325 26.5321 24.6339 26.5293 24.635 26.5268C24.6388 26.5146 24.6427 26.5024 24.6472 26.4905C24.6503 26.4817 24.6538 26.473 24.6577 26.4642C24.6612 26.4558 24.665 26.4474 24.6689 26.4391C24.6731 26.4307 24.6773 26.4226 24.6818 26.4146C24.686 26.4065 24.6909 26.3985 24.6958 26.3904C24.7007 26.3827 24.7056 26.375 24.7109 26.3674C24.7161 26.3597 24.7217 26.3523 24.7269 26.345C24.7325 26.3376 24.7385 26.3306 24.7444 26.3233C24.7504 26.3159 24.7567 26.3089 24.763 26.3019C24.7693 26.2953 24.7759 26.2887 24.7826 26.2824C24.7892 26.2761 24.7958 26.2698 24.8028 26.2635C24.8098 26.2572 24.8172 26.2512 24.8245 26.2456C24.8319 26.24 24.8392 26.2344 24.8469 26.2288C24.8546 26.2236 24.8623 26.2184 24.8703 26.2131C24.878 26.2082 24.8861 26.2033 24.8941 26.1988C24.9022 26.1942 24.9102 26.19 24.9186 26.1858C24.927 26.1816 24.9354 26.1774 24.9438 26.1736C24.9522 26.1701 24.9609 26.1666 24.9697 26.1631C24.9781 26.1596 24.9868 26.1564 24.9956 26.1533C25.0043 26.1505 25.0134 26.1481 25.0221 26.1456C25.0312 26.1432 25.0403 26.1407 25.0494 26.1386C25.0585 26.1365 25.0676 26.1351 25.0763 26.1334C25.0858 26.1316 25.0949 26.1302 25.1043 26.1292C25.1134 26.1278 25.1225 26.1264 25.1316 26.1253C25.1411 26.125 25.1501 26.125 25.1596 26.1253C25.1634 26.1253 25.1669 26.1253 25.1708 26.1257Z" fill="white"/>
<path d="M25.1708 26.1257C25.1802 26.1253 25.1893 26.1253 25.1988 26.1257C25.2016 26.1257 25.2044 26.1257 25.2075 26.126C25.217 26.1271 25.2264 26.1281 25.2358 26.1295C25.2449 26.1306 25.254 26.1316 25.2635 26.1334C25.2729 26.1351 25.282 26.1369 25.2907 26.1393C25.2988 26.1407 25.3072 26.1425 25.3152 26.1446C25.3166 26.1446 25.3177 26.1446 25.3187 26.1446C25.3215 26.1456 25.3243 26.147 25.3271 26.1484C25.3394 26.1519 25.3513 26.1561 25.3635 26.1606C25.3722 26.1638 25.3806 26.1673 25.389 26.1711C25.3978 26.1746 25.4062 26.1785 25.4149 26.1827C25.423 26.1869 25.4314 26.1911 25.4394 26.1956C25.4474 26.2002 25.4555 26.2044 25.4635 26.2093C25.4712 26.2142 25.4789 26.2191 25.4866 26.2247C25.4943 26.2299 25.502 26.2351 25.5093 26.2411C25.5167 26.2467 25.5237 26.2526 25.5307 26.2586C25.5377 26.2645 25.5447 26.2708 25.5513 26.2771C25.558 26.2834 25.5646 26.2901 25.5709 26.2967C25.5776 26.3033 25.5838 26.31 25.5898 26.317C25.5957 26.324 25.6017 26.3313 25.6076 26.3387C25.6136 26.346 25.6192 26.3534 25.6244 26.3611C25.6297 26.3684 25.6349 26.3761 25.6398 26.3841C25.6451 26.3918 25.6496 26.3999 25.6541 26.4079C25.6587 26.416 25.6629 26.4244 25.6671 26.4328C25.6713 26.4408 25.6751 26.4492 25.679 26.4576C25.6828 26.4663 25.6863 26.4747 25.6898 26.4835C25.693 26.4922 25.6961 26.501 25.6989 26.5097C25.7017 26.5184 25.7045 26.5275 25.707 26.5363C25.7094 26.545 25.7119 26.5541 25.7136 26.5629C25.7157 26.572 25.7175 26.5811 25.7189 26.5905C25.7206 26.5996 25.722 26.6087 25.723 26.6181C25.7244 26.6276 25.7258 26.6367 25.7265 26.6461C25.7269 26.6552 25.7269 26.6643 25.7265 26.6737C25.7265 26.6772 25.7265 26.6807 25.7265 26.6846C25.7269 26.6937 25.7269 26.7028 25.7265 26.7119C25.7265 26.7147 25.7265 26.7178 25.7262 26.7206C25.7251 26.7297 25.7241 26.7388 25.7223 26.7482C25.7213 26.7577 25.7202 26.7671 25.7189 26.7762C25.7171 26.7857 25.715 26.7948 25.7129 26.8039C25.7115 26.8119 25.7098 26.8203 25.7077 26.8283C25.7077 26.8297 25.7077 26.8308 25.7077 26.8322C25.7063 26.835 25.7052 26.8378 25.7042 26.8402C25.7003 26.8525 25.6965 26.8647 25.6919 26.8766C25.6888 26.8853 25.6853 26.8941 25.6814 26.9025C25.6779 26.9109 25.6744 26.9193 25.6702 26.9277C25.666 26.9361 25.6618 26.9441 25.6573 26.9521C25.6527 26.9602 25.6482 26.9686 25.6433 26.9763C25.6384 26.9843 25.6335 26.992 25.6283 26.9997C25.623 27.0074 25.6178 27.0148 25.6122 27.0224C25.6066 27.0298 25.6006 27.0368 25.5947 27.0438C25.5887 27.0508 25.5824 27.0578 25.5762 27.0644C25.5699 27.0714 25.5632 27.0777 25.5566 27.084C25.5499 27.0906 25.5429 27.0969 25.5359 27.1029C25.5289 27.1088 25.5216 27.1148 25.5142 27.1207C25.5069 27.1263 25.4996 27.1319 25.4919 27.1375C25.4842 27.1428 25.4768 27.148 25.4688 27.1529C25.4611 27.1578 25.453 27.1627 25.445 27.1672C25.4369 27.1718 25.4286 27.176 25.4205 27.1802C25.4121 27.1844 25.4037 27.1886 25.3953 27.1924C25.3869 27.1963 25.3785 27.1998 25.3698 27.2029C25.3611 27.2064 25.3523 27.2096 25.3436 27.2127C25.3348 27.2155 25.3257 27.2183 25.3166 27.2204C25.3075 27.2229 25.2988 27.225 25.2897 27.2271C25.2806 27.2292 25.2715 27.2309 25.2624 27.2323C25.2533 27.2341 25.2442 27.2354 25.2348 27.2365C25.2257 27.2379 25.2166 27.2393 25.2072 27.2403C25.1977 27.2407 25.1886 27.2407 25.1795 27.2403C25.176 27.2403 25.1722 27.2403 25.1687 27.2403C25.1592 27.2407 25.1501 27.2407 25.1407 27.2403C25.1379 27.2403 25.1351 27.2403 25.1323 27.24C25.1229 27.2389 25.1134 27.2379 25.104 27.2361C25.0949 27.2351 25.0858 27.2337 25.0767 27.2326C25.0676 27.2309 25.0585 27.2288 25.0498 27.2267C25.0414 27.2253 25.033 27.2236 25.0249 27.2215C25.0235 27.2215 25.0225 27.2215 25.0214 27.2215C25.0186 27.2201 25.0158 27.219 25.0134 27.218C25.0008 27.2145 24.9886 27.2103 24.9767 27.2057C24.9679 27.2026 24.9595 27.1991 24.9511 27.1952C24.9424 27.1917 24.934 27.1879 24.9256 27.1837C24.9172 27.1795 24.9092 27.1753 24.9011 27.1707C24.8927 27.1662 24.885 27.1616 24.877 27.1571C24.8689 27.1522 24.8612 27.1473 24.8536 27.1421C24.8459 27.1368 24.8382 27.1316 24.8308 27.1256C24.8235 27.12 24.8165 27.1144 24.8091 27.1081C24.8021 27.1022 24.7951 27.0962 24.7885 27.0899C24.7819 27.0837 24.7752 27.077 24.7689 27.0704C24.7626 27.0637 24.7563 27.0571 24.75 27.0504C24.7437 27.0434 24.7381 27.0361 24.7322 27.0287C24.7266 27.0214 24.721 27.0141 24.7154 27.0064C24.7102 26.999 24.7049 26.9913 24.7 26.9833C24.6948 26.9756 24.6902 26.9675 24.6857 26.9595C24.6811 26.9514 24.6769 26.9431 24.6727 26.9347C24.6685 26.9266 24.6643 26.9182 24.6608 26.9098C24.657 26.9014 24.6538 26.893 24.6503 26.8843C24.6469 26.8755 24.6437 26.8668 24.6406 26.8581C24.6378 26.8493 24.6353 26.8406 24.6329 26.8318C24.6304 26.8227 24.628 26.8136 24.6259 26.8045C24.6238 26.7955 24.622 26.7864 24.6206 26.7769C24.6189 26.7678 24.6175 26.7587 24.6164 26.7493C24.615 26.7402 24.6136 26.7307 24.6126 26.7217C24.6122 26.7126 24.6122 26.7031 24.6126 26.694C24.6126 26.6905 24.6126 26.687 24.6126 26.6835C24.6122 26.6741 24.6122 26.6646 24.6126 26.6552C24.6126 26.6524 24.6126 26.6496 24.6129 26.6468C24.614 26.6374 24.615 26.6279 24.6168 26.6185C24.6178 26.6094 24.6189 26.6003 24.6203 26.5908C24.622 26.5818 24.6241 26.5727 24.6262 26.5632C24.6276 26.5552 24.6294 26.5468 24.6315 26.5387C24.6315 26.5377 24.6315 26.5363 24.6315 26.5349C24.6325 26.5321 24.6339 26.5293 24.635 26.5268C24.6388 26.5146 24.6427 26.5024 24.6472 26.4905C24.6503 26.4817 24.6538 26.473 24.6577 26.4642C24.6612 26.4558 24.665 26.4474 24.6689 26.4391C24.6731 26.4307 24.6773 26.4226 24.6818 26.4146C24.686 26.4065 24.6909 26.3985 24.6958 26.3904C24.7007 26.3827 24.7056 26.375 24.7109 26.3674C24.7161 26.3597 24.7217 26.3523 24.7269 26.345C24.7325 26.3376 24.7385 26.3306 24.7444 26.3233C24.7504 26.3159 24.7567 26.3089 24.763 26.3019C24.7693 26.2953 24.7759 26.2887 24.7826 26.2824C24.7892 26.2761 24.7958 26.2698 24.8028 26.2635C24.8098 26.2572 24.8172 26.2512 24.8245 26.2456C24.8319 26.24 24.8392 26.2344 24.8469 26.2288C24.8546 26.2236 24.8623 26.2184 24.8703 26.2131C24.878 26.2082 24.8861 26.2033 24.8941 26.1988C24.9022 26.1942 24.9102 26.19 24.9186 26.1858C24.927 26.1816 24.9354 26.1774 24.9438 26.1736C24.9522 26.1701 24.9609 26.1666 24.9697 26.1631C24.9781 26.1596 24.9868 26.1564 24.9956 26.1533C25.0043 26.1505 25.0134 26.1481 25.0221 26.1456C25.0312 26.1432 25.0403 26.1407 25.0494 26.1386C25.0585 26.1365 25.0676 26.1351 25.0763 26.1334C25.0858 26.1316 25.0949 26.1302 25.1043 26.1292C25.1134 26.1278 25.1225 26.1264 25.1316 26.1253C25.1411 26.125 25.1501 26.125 25.1596 26.1253C25.1634 26.1253 25.1669 26.1253 25.1708 26.1257Z" fill="white"/>
<path d="M25.1708 26.1257C25.1802 26.1253 25.1893 26.1253 25.1988 26.1257C25.2016 26.1257 25.2044 26.1257 25.2075 26.126C25.217 26.1271 25.2264 26.1281 25.2358 26.1295C25.2449 26.1306 25.254 26.1316 25.2635 26.1334C25.2729 26.1351 25.282 26.1369 25.2907 26.1393C25.2988 26.1407 25.3072 26.1425 25.3152 26.1446C25.3166 26.1446 25.3177 26.1446 25.3187 26.1446C25.3215 26.1456 25.3243 26.147 25.3271 26.1484C25.3394 26.1519 25.3513 26.1561 25.3635 26.1606C25.3722 26.1638 25.3806 26.1673 25.389 26.1711C25.3978 26.1746 25.4062 26.1785 25.4149 26.1827C25.423 26.1869 25.4314 26.1911 25.4394 26.1956C25.4474 26.2002 25.4555 26.2044 25.4635 26.2093C25.4712 26.2142 25.4789 26.2191 25.4866 26.2247C25.4943 26.2299 25.502 26.2351 25.5093 26.2411C25.5167 26.2467 25.5237 26.2526 25.5307 26.2586C25.5377 26.2645 25.5447 26.2708 25.5513 26.2771C25.558 26.2834 25.5646 26.2901 25.5709 26.2967C25.5776 26.3033 25.5838 26.31 25.5898 26.317C25.5957 26.324 25.6017 26.3313 25.6076 26.3387C25.6136 26.346 25.6192 26.3534 25.6244 26.3611C25.6297 26.3684 25.6349 26.3761 25.6398 26.3841C25.6451 26.3918 25.6496 26.3999 25.6541 26.4079C25.6587 26.416 25.6629 26.4244 25.6671 26.4328C25.6713 26.4408 25.6751 26.4492 25.679 26.4576C25.6828 26.4663 25.6863 26.4747 25.6898 26.4835C25.693 26.4922 25.6961 26.501 25.6989 26.5097C25.7017 26.5184 25.7045 26.5275 25.707 26.5363C25.7094 26.545 25.7119 26.5541 25.7136 26.5629C25.7157 26.572 25.7175 26.5811 25.7189 26.5905C25.7206 26.5996 25.722 26.6087 25.723 26.6181C25.7244 26.6276 25.7258 26.6367 25.7265 26.6461C25.7269 26.6552 25.7269 26.6643 25.7265 26.6737C25.7265 26.6772 25.7265 26.6807 25.7265 26.6846C25.7269 26.6937 25.7269 26.7028 25.7265 26.7119C25.7265 26.7147 25.7265 26.7178 25.7262 26.7206C25.7251 26.7297 25.7241 26.7388 25.7223 26.7482C25.7213 26.7577 25.7202 26.7671 25.7189 26.7762C25.7171 26.7857 25.715 26.7948 25.7129 26.8039C25.7115 26.8119 25.7098 26.8203 25.7077 26.8283C25.7077 26.8297 25.7077 26.8308 25.7077 26.8322C25.7063 26.835 25.7052 26.8378 25.7042 26.8402C25.7003 26.8525 25.6965 26.8647 25.6919 26.8766C25.6888 26.8853 25.6853 26.8941 25.6814 26.9025C25.6779 26.9109 25.6744 26.9193 25.6702 26.9277C25.666 26.9361 25.6618 26.9441 25.6573 26.9521C25.6527 26.9602 25.6482 26.9686 25.6433 26.9763C25.6384 26.9843 25.6335 26.992 25.6283 26.9997C25.623 27.0074 25.6178 27.0148 25.6122 27.0224C25.6066 27.0298 25.6006 27.0368 25.5947 27.0438C25.5887 27.0508 25.5824 27.0578 25.5762 27.0644C25.5699 27.0714 25.5632 27.0777 25.5566 27.084C25.5499 27.0906 25.5429 27.0969 25.5359 27.1029C25.5289 27.1088 25.5216 27.1148 25.5142 27.1207C25.5069 27.1263 25.4996 27.1319 25.4919 27.1375C25.4842 27.1428 25.4768 27.148 25.4688 27.1529C25.4611 27.1578 25.453 27.1627 25.445 27.1672C25.4369 27.1718 25.4286 27.176 25.4205 27.1802C25.4121 27.1844 25.4037 27.1886 25.3953 27.1924C25.3869 27.1963 25.3785 27.1998 25.3698 27.2029C25.3611 27.2064 25.3523 27.2096 25.3436 27.2127C25.3348 27.2155 25.3257 27.2183 25.3166 27.2204C25.3075 27.2229 25.2988 27.225 25.2897 27.2271C25.2806 27.2292 25.2715 27.2309 25.2624 27.2323C25.2533 27.2341 25.2442 27.2354 25.2348 27.2365C25.2257 27.2379 25.2166 27.2393 25.2072 27.2403C25.1977 27.2407 25.1886 27.2407 25.1795 27.2403C25.176 27.2403 25.1722 27.2403 25.1687 27.2403C25.1592 27.2407 25.1501 27.2407 25.1407 27.2403C25.1379 27.2403 25.1351 27.2403 25.1323 27.24C25.1229 27.2389 25.1134 27.2379 25.104 27.2361C25.0949 27.2351 25.0858 27.2337 25.0767 27.2326C25.0676 27.2309 25.0585 27.2288 25.0498 27.2267C25.0414 27.2253 25.033 27.2236 25.0249 27.2215C25.0235 27.2215 25.0225 27.2215 25.0214 27.2215C25.0186 27.2201 25.0158 27.219 25.0134 27.218C25.0008 27.2145 24.9886 27.2103 24.9767 27.2057C24.9679 27.2026 24.9595 27.1991 24.9511 27.1952C24.9424 27.1917 24.934 27.1879 24.9256 27.1837C24.9172 27.1795 24.9092 27.1753 24.9011 27.1707C24.8927 27.1662 24.885 27.1616 24.877 27.1571C24.8689 27.1522 24.8612 27.1473 24.8536 27.1421C24.8459 27.1368 24.8382 27.1316 24.8308 27.1256C24.8235 27.12 24.8165 27.1144 24.8091 27.1081C24.8021 27.1022 24.7951 27.0962 24.7885 27.0899C24.7819 27.0837 24.7752 27.077 24.7689 27.0704C24.7626 27.0637 24.7563 27.0571 24.75 27.0504C24.7437 27.0434 24.7381 27.0361 24.7322 27.0287C24.7266 27.0214 24.721 27.0141 24.7154 27.0064C24.7102 26.999 24.7049 26.9913 24.7 26.9833C24.6948 26.9756 24.6902 26.9675 24.6857 26.9595C24.6811 26.9514 24.6769 26.9431 24.6727 26.9347C24.6685 26.9266 24.6643 26.9182 24.6608 26.9098C24.657 26.9014 24.6538 26.893 24.6503 26.8843C24.6469 26.8755 24.6437 26.8668 24.6406 26.8581C24.6378 26.8493 24.6353 26.8406 24.6329 26.8318C24.6304 26.8227 24.628 26.8136 24.6259 26.8045C24.6238 26.7955 24.622 26.7864 24.6206 26.7769C24.6189 26.7678 24.6175 26.7587 24.6164 26.7493C24.615 26.7402 24.6136 26.7307 24.6126 26.7217C24.6122 26.7126 24.6122 26.7031 24.6126 26.694C24.6126 26.6905 24.6126 26.687 24.6126 26.6835C24.6122 26.6741 24.6122 26.6646 24.6126 26.6552C24.6126 26.6524 24.6126 26.6496 24.6129 26.6468C24.614 26.6374 24.615 26.6279 24.6168 26.6185C24.6178 26.6094 24.6189 26.6003 24.6203 26.5908C24.622 26.5818 24.6241 26.5727 24.6262 26.5632C24.6276 26.5552 24.6294 26.5468 24.6315 26.5387C24.6315 26.5377 24.6315 26.5363 24.6315 26.5349C24.6325 26.5321 24.6339 26.5293 24.635 26.5268C24.6388 26.5146 24.6427 26.5024 24.6472 26.4905C24.6503 26.4817 24.6538 26.473 24.6577 26.4642C24.6612 26.4558 24.665 26.4474 24.6689 26.4391C24.6731 26.4307 24.6773 26.4226 24.6818 26.4146C24.686 26.4065 24.6909 26.3985 24.6958 26.3904C24.7007 26.3827 24.7056 26.375 24.7109 26.3674C24.7161 26.3597 24.7217 26.3523 24.7269 26.345C24.7325 26.3376 24.7385 26.3306 24.7444 26.3233C24.7504 26.3159 24.7567 26.3089 24.763 26.3019C24.7693 26.2953 24.7759 26.2887 24.7826 26.2824C24.7892 26.2761 24.7958 26.2698 24.8028 26.2635C24.8098 26.2572 24.8172 26.2512 24.8245 26.2456C24.8319 26.24 24.8392 26.2344 24.8469 26.2288C24.8546 26.2236 24.8623 26.2184 24.8703 26.2131C24.878 26.2082 24.8861 26.2033 24.8941 26.1988C24.9022 26.1942 24.9102 26.19 24.9186 26.1858C24.927 26.1816 24.9354 26.1774 24.9438 26.1736C24.9522 26.1701 24.9609 26.1666 24.9697 26.1631C24.9781 26.1596 24.9868 26.1564 24.9956 26.1533C25.0043 26.1505 25.0134 26.1481 25.0221 26.1456C25.0312 26.1432 25.0403 26.1407 25.0494 26.1386C25.0585 26.1365 25.0676 26.1351 25.0763 26.1334C25.0858 26.1316 25.0949 26.1302 25.1043 26.1292C25.1134 26.1278 25.1225 26.1264 25.1316 26.1253C25.1411 26.125 25.1501 26.125 25.1596 26.1253C25.1634 26.1253 25.1669 26.1253 25.1708 26.1257Z" fill="white"/>
<path d="M25.1708 26.1257C25.1802 26.1253 25.1893 26.1253 25.1988 26.1257C25.2016 26.1257 25.2044 26.1257 25.2075 26.126C25.217 26.1271 25.2264 26.1281 25.2358 26.1295C25.2449 26.1306 25.254 26.1316 25.2635 26.1334C25.2729 26.1351 25.282 26.1369 25.2907 26.1393C25.2988 26.1407 25.3072 26.1425 25.3152 26.1446C25.3166 26.1446 25.3177 26.1446 25.3187 26.1446C25.3215 26.1456 25.3243 26.147 25.3271 26.1484C25.3394 26.1519 25.3513 26.1561 25.3635 26.1606C25.3722 26.1638 25.3806 26.1673 25.389 26.1711C25.3978 26.1746 25.4062 26.1785 25.4149 26.1827C25.423 26.1869 25.4314 26.1911 25.4394 26.1956C25.4474 26.2002 25.4555 26.2044 25.4635 26.2093C25.4712 26.2142 25.4789 26.2191 25.4866 26.2247C25.4943 26.2299 25.502 26.2351 25.5093 26.2411C25.5167 26.2467 25.5237 26.2526 25.5307 26.2586C25.5377 26.2645 25.5447 26.2708 25.5513 26.2771C25.558 26.2834 25.5646 26.2901 25.5709 26.2967C25.5776 26.3033 25.5838 26.31 25.5898 26.317C25.5957 26.324 25.6017 26.3313 25.6076 26.3387C25.6136 26.346 25.6192 26.3534 25.6244 26.3611C25.6297 26.3684 25.6349 26.3761 25.6398 26.3841C25.6451 26.3918 25.6496 26.3999 25.6541 26.4079C25.6587 26.416 25.6629 26.4244 25.6671 26.4328C25.6713 26.4408 25.6751 26.4492 25.679 26.4576C25.6828 26.4663 25.6863 26.4747 25.6898 26.4835C25.693 26.4922 25.6961 26.501 25.6989 26.5097C25.7017 26.5184 25.7045 26.5275 25.707 26.5363C25.7094 26.545 25.7119 26.5541 25.7136 26.5629C25.7157 26.572 25.7175 26.5811 25.7189 26.5905C25.7206 26.5996 25.722 26.6087 25.723 26.6181C25.7244 26.6276 25.7258 26.6367 25.7265 26.6461C25.7269 26.6552 25.7269 26.6643 25.7265 26.6737C25.7265 26.6772 25.7265 26.6807 25.7265 26.6846C25.7269 26.6937 25.7269 26.7028 25.7265 26.7119C25.7265 26.7147 25.7265 26.7178 25.7262 26.7206C25.7251 26.7297 25.7241 26.7388 25.7223 26.7482C25.7213 26.7577 25.7202 26.7671 25.7189 26.7762C25.7171 26.7857 25.715 26.7948 25.7129 26.8039C25.7115 26.8119 25.7098 26.8203 25.7077 26.8283C25.7077 26.8297 25.7077 26.8308 25.7077 26.8322C25.7063 26.835 25.7052 26.8378 25.7042 26.8402C25.7003 26.8525 25.6965 26.8647 25.6919 26.8766C25.6888 26.8853 25.6853 26.8941 25.6814 26.9025C25.6779 26.9109 25.6744 26.9193 25.6702 26.9277C25.666 26.9361 25.6618 26.9441 25.6573 26.9521C25.6527 26.9602 25.6482 26.9686 25.6433 26.9763C25.6384 26.9843 25.6335 26.992 25.6283 26.9997C25.623 27.0074 25.6178 27.0148 25.6122 27.0224C25.6066 27.0298 25.6006 27.0368 25.5947 27.0438C25.5887 27.0508 25.5824 27.0578 25.5762 27.0644C25.5699 27.0714 25.5632 27.0777 25.5566 27.084C25.5499 27.0906 25.5429 27.0969 25.5359 27.1029C25.5289 27.1088 25.5216 27.1148 25.5142 27.1207C25.5069 27.1263 25.4996 27.1319 25.4919 27.1375C25.4842 27.1428 25.4768 27.148 25.4688 27.1529C25.4611 27.1578 25.453 27.1627 25.445 27.1672C25.4369 27.1718 25.4286 27.176 25.4205 27.1802C25.4121 27.1844 25.4037 27.1886 25.3953 27.1924C25.3869 27.1963 25.3785 27.1998 25.3698 27.2029C25.3611 27.2064 25.3523 27.2096 25.3436 27.2127C25.3348 27.2155 25.3257 27.2183 25.3166 27.2204C25.3075 27.2229 25.2988 27.225 25.2897 27.2271C25.2806 27.2292 25.2715 27.2309 25.2624 27.2323C25.2533 27.2341 25.2442 27.2354 25.2348 27.2365C25.2257 27.2379 25.2166 27.2393 25.2072 27.2403C25.1977 27.2407 25.1886 27.2407 25.1795 27.2403C25.176 27.2403 25.1722 27.2403 25.1687 27.2403C25.1592 27.2407 25.1501 27.2407 25.1407 27.2403C25.1379 27.2403 25.1351 27.2403 25.1323 27.24C25.1229 27.2389 25.1134 27.2379 25.104 27.2361C25.0949 27.2351 25.0858 27.2337 25.0767 27.2326C25.0676 27.2309 25.0585 27.2288 25.0498 27.2267C25.0414 27.2253 25.033 27.2236 25.0249 27.2215C25.0235 27.2215 25.0225 27.2215 25.0214 27.2215C25.0186 27.2201 25.0158 27.219 25.0134 27.218C25.0008 27.2145 24.9886 27.2103 24.9767 27.2057C24.9679 27.2026 24.9595 27.1991 24.9511 27.1952C24.9424 27.1917 24.934 27.1879 24.9256 27.1837C24.9172 27.1795 24.9092 27.1753 24.9011 27.1707C24.8927 27.1662 24.885 27.1616 24.877 27.1571C24.8689 27.1522 24.8612 27.1473 24.8536 27.1421C24.8459 27.1368 24.8382 27.1316 24.8308 27.1256C24.8235 27.12 24.8165 27.1144 24.8091 27.1081C24.8021 27.1022 24.7951 27.0962 24.7885 27.0899C24.7819 27.0837 24.7752 27.077 24.7689 27.0704C24.7626 27.0637 24.7563 27.0571 24.75 27.0504C24.7437 27.0434 24.7381 27.0361 24.7322 27.0287C24.7266 27.0214 24.721 27.0141 24.7154 27.0064C24.7102 26.999 24.7049 26.9913 24.7 26.9833C24.6948 26.9756 24.6902 26.9675 24.6857 26.9595C24.6811 26.9514 24.6769 26.9431 24.6727 26.9347C24.6685 26.9266 24.6643 26.9182 24.6608 26.9098C24.657 26.9014 24.6538 26.893 24.6503 26.8843C24.6469 26.8755 24.6437 26.8668 24.6406 26.8581C24.6378 26.8493 24.6353 26.8406 24.6329 26.8318C24.6304 26.8227 24.628 26.8136 24.6259 26.8045C24.6238 26.7955 24.622 26.7864 24.6206 26.7769C24.6189 26.7678 24.6175 26.7587 24.6164 26.7493C24.615 26.7402 24.6136 26.7307 24.6126 26.7217C24.6122 26.7126 24.6122 26.7031 24.6126 26.694C24.6126 26.6905 24.6126 26.687 24.6126 26.6835C24.6122 26.6741 24.6122 26.6646 24.6126 26.6552C24.6126 26.6524 24.6126 26.6496 24.6129 26.6468C24.614 26.6374 24.615 26.6279 24.6168 26.6185C24.6178 26.6094 24.6189 26.6003 24.6203 26.5908C24.622 26.5818 24.6241 26.5727 24.6262 26.5632C24.6276 26.5552 24.6294 26.5468 24.6315 26.5387C24.6315 26.5377 24.6315 26.5363 24.6315 26.5349C24.6325 26.5321 24.6339 26.5293 24.635 26.5268C24.6388 26.5146 24.6427 26.5024 24.6472 26.4905C24.6503 26.4817 24.6538 26.473 24.6577 26.4642C24.6612 26.4558 24.665 26.4474 24.6689 26.4391C24.6731 26.4307 24.6773 26.4226 24.6818 26.4146C24.686 26.4065 24.6909 26.3985 24.6958 26.3904C24.7007 26.3827 24.7056 26.375 24.7109 26.3674C24.7161 26.3597 24.7217 26.3523 24.7269 26.345C24.7325 26.3376 24.7385 26.3306 24.7444 26.3233C24.7504 26.3159 24.7567 26.3089 24.763 26.3019C24.7693 26.2953 24.7759 26.2887 24.7826 26.2824C24.7892 26.2761 24.7958 26.2698 24.8028 26.2635C24.8098 26.2572 24.8172 26.2512 24.8245 26.2456C24.8319 26.24 24.8392 26.2344 24.8469 26.2288C24.8546 26.2236 24.8623 26.2184 24.8703 26.2131C24.878 26.2082 24.8861 26.2033 24.8941 26.1988C24.9022 26.1942 24.9102 26.19 24.9186 26.1858C24.927 26.1816 24.9354 26.1774 24.9438 26.1736C24.9522 26.1701 24.9609 26.1666 24.9697 26.1631C24.9781 26.1596 24.9868 26.1564 24.9956 26.1533C25.0043 26.1505 25.0134 26.1481 25.0221 26.1456C25.0312 26.1432 25.0403 26.1407 25.0494 26.1386C25.0585 26.1365 25.0676 26.1351 25.0763 26.1334C25.0858 26.1316 25.0949 26.1302 25.1043 26.1292C25.1134 26.1278 25.1225 26.1264 25.1316 26.1253C25.1411 26.125 25.1501 26.125 25.1596 26.1253C25.1634 26.1253 25.1669 26.1253 25.1708 26.1257Z" fill="white"/>
<path d="M25.1708 26.1257C25.1802 26.1253 25.1893 26.1253 25.1988 26.1257C25.2016 26.1257 25.2044 26.1257 25.2075 26.126C25.217 26.1271 25.2264 26.1281 25.2358 26.1295C25.2449 26.1306 25.254 26.1316 25.2635 26.1334C25.2729 26.1351 25.282 26.1369 25.2907 26.1393C25.2988 26.1407 25.3072 26.1425 25.3152 26.1446C25.3166 26.1446 25.3177 26.1446 25.3187 26.1446C25.3215 26.1456 25.3243 26.147 25.3271 26.1484C25.3394 26.1519 25.3513 26.1561 25.3635 26.1606C25.3722 26.1638 25.3806 26.1673 25.389 26.1711C25.3978 26.1746 25.4062 26.1785 25.4149 26.1827C25.423 26.1869 25.4314 26.1911 25.4394 26.1956C25.4474 26.2002 25.4555 26.2044 25.4635 26.2093C25.4712 26.2142 25.4789 26.2191 25.4866 26.2247C25.4943 26.2299 25.502 26.2351 25.5093 26.2411C25.5167 26.2467 25.5237 26.2526 25.5307 26.2586C25.5377 26.2645 25.5447 26.2708 25.5513 26.2771C25.558 26.2834 25.5646 26.2901 25.5709 26.2967C25.5776 26.3033 25.5838 26.31 25.5898 26.317C25.5957 26.324 25.6017 26.3313 25.6076 26.3387C25.6136 26.346 25.6192 26.3534 25.6244 26.3611C25.6297 26.3684 25.6349 26.3761 25.6398 26.3841C25.6451 26.3918 25.6496 26.3999 25.6541 26.4079C25.6587 26.416 25.6629 26.4244 25.6671 26.4328C25.6713 26.4408 25.6751 26.4492 25.679 26.4576C25.6828 26.4663 25.6863 26.4747 25.6898 26.4835C25.693 26.4922 25.6961 26.501 25.6989 26.5097C25.7017 26.5184 25.7045 26.5275 25.707 26.5363C25.7094 26.545 25.7119 26.5541 25.7136 26.5629C25.7157 26.572 25.7175 26.5811 25.7189 26.5905C25.7206 26.5996 25.722 26.6087 25.723 26.6181C25.7244 26.6276 25.7258 26.6367 25.7265 26.6461C25.7269 26.6552 25.7269 26.6643 25.7265 26.6737C25.7265 26.6772 25.7265 26.6807 25.7265 26.6846C25.7269 26.6937 25.7269 26.7028 25.7265 26.7119C25.7265 26.7147 25.7265 26.7178 25.7262 26.7206C25.7251 26.7297 25.7241 26.7388 25.7223 26.7482C25.7213 26.7577 25.7202 26.7671 25.7189 26.7762C25.7171 26.7857 25.715 26.7948 25.7129 26.8039C25.7115 26.8119 25.7098 26.8203 25.7077 26.8283C25.7077 26.8297 25.7077 26.8308 25.7077 26.8322C25.7063 26.835 25.7052 26.8378 25.7042 26.8402C25.7003 26.8525 25.6965 26.8647 25.6919 26.8766C25.6888 26.8853 25.6853 26.8941 25.6814 26.9025C25.6779 26.9109 25.6744 26.9193 25.6702 26.9277C25.666 26.9361 25.6618 26.9441 25.6573 26.9521C25.6527 26.9602 25.6482 26.9686 25.6433 26.9763C25.6384 26.9843 25.6335 26.992 25.6283 26.9997C25.623 27.0074 25.6178 27.0148 25.6122 27.0224C25.6066 27.0298 25.6006 27.0368 25.5947 27.0438C25.5887 27.0508 25.5824 27.0578 25.5762 27.0644C25.5699 27.0714 25.5632 27.0777 25.5566 27.084C25.5499 27.0906 25.5429 27.0969 25.5359 27.1029C25.5289 27.1088 25.5216 27.1148 25.5142 27.1207C25.5069 27.1263 25.4996 27.1319 25.4919 27.1375C25.4842 27.1428 25.4768 27.148 25.4688 27.1529C25.4611 27.1578 25.453 27.1627 25.445 27.1672C25.4369 27.1718 25.4286 27.176 25.4205 27.1802C25.4121 27.1844 25.4037 27.1886 25.3953 27.1924C25.3869 27.1963 25.3785 27.1998 25.3698 27.2029C25.3611 27.2064 25.3523 27.2096 25.3436 27.2127C25.3348 27.2155 25.3257 27.2183 25.3166 27.2204C25.3075 27.2229 25.2988 27.225 25.2897 27.2271C25.2806 27.2292 25.2715 27.2309 25.2624 27.2323C25.2533 27.2341 25.2442 27.2354 25.2348 27.2365C25.2257 27.2379 25.2166 27.2393 25.2072 27.2403C25.1977 27.2407 25.1886 27.2407 25.1795 27.2403C25.176 27.2403 25.1722 27.2403 25.1687 27.2403C25.1592 27.2407 25.1501 27.2407 25.1407 27.2403C25.1379 27.2403 25.1351 27.2403 25.1323 27.24C25.1229 27.2389 25.1134 27.2379 25.104 27.2361C25.0949 27.2351 25.0858 27.2337 25.0767 27.2326C25.0676 27.2309 25.0585 27.2288 25.0498 27.2267C25.0414 27.2253 25.033 27.2236 25.0249 27.2215C25.0235 27.2215 25.0225 27.2215 25.0214 27.2215C25.0186 27.2201 25.0158 27.219 25.0134 27.218C25.0008 27.2145 24.9886 27.2103 24.9767 27.2057C24.9679 27.2026 24.9595 27.1991 24.9511 27.1952C24.9424 27.1917 24.934 27.1879 24.9256 27.1837C24.9172 27.1795 24.9092 27.1753 24.9011 27.1707C24.8927 27.1662 24.885 27.1616 24.877 27.1571C24.8689 27.1522 24.8612 27.1473 24.8536 27.1421C24.8459 27.1368 24.8382 27.1316 24.8308 27.1256C24.8235 27.12 24.8165 27.1144 24.8091 27.1081C24.8021 27.1022 24.7951 27.0962 24.7885 27.0899C24.7819 27.0837 24.7752 27.077 24.7689 27.0704C24.7626 27.0637 24.7563 27.0571 24.75 27.0504C24.7437 27.0434 24.7381 27.0361 24.7322 27.0287C24.7266 27.0214 24.721 27.0141 24.7154 27.0064C24.7102 26.999 24.7049 26.9913 24.7 26.9833C24.6948 26.9756 24.6902 26.9675 24.6857 26.9595C24.6811 26.9514 24.6769 26.9431 24.6727 26.9347C24.6685 26.9266 24.6643 26.9182 24.6608 26.9098C24.657 26.9014 24.6538 26.893 24.6503 26.8843C24.6469 26.8755 24.6437 26.8668 24.6406 26.8581C24.6378 26.8493 24.6353 26.8406 24.6329 26.8318C24.6304 26.8227 24.628 26.8136 24.6259 26.8045C24.6238 26.7955 24.622 26.7864 24.6206 26.7769C24.6189 26.7678 24.6175 26.7587 24.6164 26.7493C24.615 26.7402 24.6136 26.7307 24.6126 26.7217C24.6122 26.7126 24.6122 26.7031 24.6126 26.694C24.6126 26.6905 24.6126 26.687 24.6126 26.6835C24.6122 26.6741 24.6122 26.6646 24.6126 26.6552C24.6126 26.6524 24.6126 26.6496 24.6129 26.6468C24.614 26.6374 24.615 26.6279 24.6168 26.6185C24.6178 26.6094 24.6189 26.6003 24.6203 26.5908C24.622 26.5818 24.6241 26.5727 24.6262 26.5632C24.6276 26.5552 24.6294 26.5468 24.6315 26.5387C24.6315 26.5377 24.6315 26.5363 24.6315 26.5349C24.6325 26.5321 24.6339 26.5293 24.635 26.5268C24.6388 26.5146 24.6427 26.5024 24.6472 26.4905C24.6503 26.4817 24.6538 26.473 24.6577 26.4642C24.6612 26.4558 24.665 26.4474 24.6689 26.4391C24.6731 26.4307 24.6773 26.4226 24.6818 26.4146C24.686 26.4065 24.6909 26.3985 24.6958 26.3904C24.7007 26.3827 24.7056 26.375 24.7109 26.3674C24.7161 26.3597 24.7217 26.3523 24.7269 26.345C24.7325 26.3376 24.7385 26.3306 24.7444 26.3233C24.7504 26.3159 24.7567 26.3089 24.763 26.3019C24.7693 26.2953 24.7759 26.2887 24.7826 26.2824C24.7892 26.2761 24.7958 26.2698 24.8028 26.2635C24.8098 26.2572 24.8172 26.2512 24.8245 26.2456C24.8319 26.24 24.8392 26.2344 24.8469 26.2288C24.8546 26.2236 24.8623 26.2184 24.8703 26.2131C24.878 26.2082 24.8861 26.2033 24.8941 26.1988C24.9022 26.1942 24.9102 26.19 24.9186 26.1858C24.927 26.1816 24.9354 26.1774 24.9438 26.1736C24.9522 26.1701 24.9609 26.1666 24.9697 26.1631C24.9781 26.1596 24.9868 26.1564 24.9956 26.1533C25.0043 26.1505 25.0134 26.1481 25.0221 26.1456C25.0312 26.1432 25.0403 26.1407 25.0494 26.1386C25.0585 26.1365 25.0676 26.1351 25.0763 26.1334C25.0858 26.1316 25.0949 26.1302 25.1043 26.1292C25.1134 26.1278 25.1225 26.1264 25.1316 26.1253C25.1411 26.125 25.1501 26.125 25.1596 26.1253C25.1634 26.1253 25.1669 26.1253 25.1708 26.1257Z" fill="white"/>
<path d="M25.1708 26.1257C25.1802 26.1253 25.1893 26.1253 25.1988 26.1257C25.2016 26.1257 25.2044 26.1257 25.2075 26.126C25.217 26.1271 25.2264 26.1281 25.2358 26.1295C25.2449 26.1306 25.254 26.1316 25.2635 26.1334C25.2729 26.1351 25.282 26.1369 25.2907 26.1393C25.2988 26.1407 25.3072 26.1425 25.3152 26.1446C25.3166 26.1446 25.3177 26.1446 25.3187 26.1446C25.3215 26.1456 25.3243 26.147 25.3271 26.1484C25.3394 26.1519 25.3513 26.1561 25.3635 26.1606C25.3722 26.1638 25.3806 26.1673 25.389 26.1711C25.3978 26.1746 25.4062 26.1785 25.4149 26.1827C25.423 26.1869 25.4314 26.1911 25.4394 26.1956C25.4474 26.2002 25.4555 26.2044 25.4635 26.2093C25.4712 26.2142 25.4789 26.2191 25.4866 26.2247C25.4943 26.2299 25.502 26.2351 25.5093 26.2411C25.5167 26.2467 25.5237 26.2526 25.5307 26.2586C25.5377 26.2645 25.5447 26.2708 25.5513 26.2771C25.558 26.2834 25.5646 26.2901 25.5709 26.2967C25.5776 26.3033 25.5838 26.31 25.5898 26.317C25.5957 26.324 25.6017 26.3313 25.6076 26.3387C25.6136 26.346 25.6192 26.3534 25.6244 26.3611C25.6297 26.3684 25.6349 26.3761 25.6398 26.3841C25.6451 26.3918 25.6496 26.3999 25.6541 26.4079C25.6587 26.416 25.6629 26.4244 25.6671 26.4328C25.6713 26.4408 25.6751 26.4492 25.679 26.4576C25.6828 26.4663 25.6863 26.4747 25.6898 26.4835C25.693 26.4922 25.6961 26.501 25.6989 26.5097C25.7017 26.5184 25.7045 26.5275 25.707 26.5363C25.7094 26.545 25.7119 26.5541 25.7136 26.5629C25.7157 26.572 25.7175 26.5811 25.7189 26.5905C25.7206 26.5996 25.722 26.6087 25.723 26.6181C25.7244 26.6276 25.7258 26.6367 25.7265 26.6461C25.7269 26.6552 25.7269 26.6643 25.7265 26.6737C25.7265 26.6772 25.7265 26.6807 25.7265 26.6846C25.7269 26.6937 25.7269 26.7028 25.7265 26.7119C25.7265 26.7147 25.7265 26.7178 25.7262 26.7206C25.7251 26.7297 25.7241 26.7388 25.7223 26.7482C25.7213 26.7577 25.7202 26.7671 25.7189 26.7762C25.7171 26.7857 25.715 26.7948 25.7129 26.8039C25.7115 26.8119 25.7098 26.8203 25.7077 26.8283C25.7077 26.8297 25.7077 26.8308 25.7077 26.8322C25.7063 26.835 25.7052 26.8378 25.7042 26.8402C25.7003 26.8525 25.6965 26.8647 25.6919 26.8766C25.6888 26.8853 25.6853 26.8941 25.6814 26.9025C25.6779 26.9109 25.6744 26.9193 25.6702 26.9277C25.666 26.9361 25.6618 26.9441 25.6573 26.9521C25.6527 26.9602 25.6482 26.9686 25.6433 26.9763C25.6384 26.9843 25.6335 26.992 25.6283 26.9997C25.623 27.0074 25.6178 27.0148 25.6122 27.0224C25.6066 27.0298 25.6006 27.0368 25.5947 27.0438C25.5887 27.0508 25.5824 27.0578 25.5762 27.0644C25.5699 27.0714 25.5632 27.0777 25.5566 27.084C25.5499 27.0906 25.5429 27.0969 25.5359 27.1029C25.5289 27.1088 25.5216 27.1148 25.5142 27.1207C25.5069 27.1263 25.4996 27.1319 25.4919 27.1375C25.4842 27.1428 25.4768 27.148 25.4688 27.1529C25.4611 27.1578 25.453 27.1627 25.445 27.1672C25.4369 27.1718 25.4286 27.176 25.4205 27.1802C25.4121 27.1844 25.4037 27.1886 25.3953 27.1924C25.3869 27.1963 25.3785 27.1998 25.3698 27.2029C25.3611 27.2064 25.3523 27.2096 25.3436 27.2127C25.3348 27.2155 25.3257 27.2183 25.3166 27.2204C25.3075 27.2229 25.2988 27.225 25.2897 27.2271C25.2806 27.2292 25.2715 27.2309 25.2624 27.2323C25.2533 27.2341 25.2442 27.2354 25.2348 27.2365C25.2257 27.2379 25.2166 27.2393 25.2072 27.2403C25.1977 27.2407 25.1886 27.2407 25.1795 27.2403C25.176 27.2403 25.1722 27.2403 25.1687 27.2403C25.1592 27.2407 25.1501 27.2407 25.1407 27.2403C25.1379 27.2403 25.1351 27.2403 25.1323 27.24C25.1229 27.2389 25.1134 27.2379 25.104 27.2361C25.0949 27.2351 25.0858 27.2337 25.0767 27.2326C25.0676 27.2309 25.0585 27.2288 25.0498 27.2267C25.0414 27.2253 25.033 27.2236 25.0249 27.2215C25.0235 27.2215 25.0225 27.2215 25.0214 27.2215C25.0186 27.2201 25.0158 27.219 25.0134 27.218C25.0008 27.2145 24.9886 27.2103 24.9767 27.2057C24.9679 27.2026 24.9595 27.1991 24.9511 27.1952C24.9424 27.1917 24.934 27.1879 24.9256 27.1837C24.9172 27.1795 24.9092 27.1753 24.9011 27.1707C24.8927 27.1662 24.885 27.1616 24.877 27.1571C24.8689 27.1522 24.8612 27.1473 24.8536 27.1421C24.8459 27.1368 24.8382 27.1316 24.8308 27.1256C24.8235 27.12 24.8165 27.1144 24.8091 27.1081C24.8021 27.1022 24.7951 27.0962 24.7885 27.0899C24.7819 27.0837 24.7752 27.077 24.7689 27.0704C24.7626 27.0637 24.7563 27.0571 24.75 27.0504C24.7437 27.0434 24.7381 27.0361 24.7322 27.0287C24.7266 27.0214 24.721 27.0141 24.7154 27.0064C24.7102 26.999 24.7049 26.9913 24.7 26.9833C24.6948 26.9756 24.6902 26.9675 24.6857 26.9595C24.6811 26.9514 24.6769 26.9431 24.6727 26.9347C24.6685 26.9266 24.6643 26.9182 24.6608 26.9098C24.657 26.9014 24.6538 26.893 24.6503 26.8843C24.6469 26.8755 24.6437 26.8668 24.6406 26.8581C24.6378 26.8493 24.6353 26.8406 24.6329 26.8318C24.6304 26.8227 24.628 26.8136 24.6259 26.8045C24.6238 26.7955 24.622 26.7864 24.6206 26.7769C24.6189 26.7678 24.6175 26.7587 24.6164 26.7493C24.615 26.7402 24.6136 26.7307 24.6126 26.7217C24.6122 26.7126 24.6122 26.7031 24.6126 26.694C24.6126 26.6905 24.6126 26.687 24.6126 26.6835C24.6122 26.6741 24.6122 26.6646 24.6126 26.6552C24.6126 26.6524 24.6126 26.6496 24.6129 26.6468C24.614 26.6374 24.615 26.6279 24.6168 26.6185C24.6178 26.6094 24.6189 26.6003 24.6203 26.5908C24.622 26.5818 24.6241 26.5727 24.6262 26.5632C24.6276 26.5552 24.6294 26.5468 24.6315 26.5387C24.6315 26.5377 24.6315 26.5363 24.6315 26.5349C24.6325 26.5321 24.6339 26.5293 24.635 26.5268C24.6388 26.5146 24.6427 26.5024 24.6472 26.4905C24.6503 26.4817 24.6538 26.473 24.6577 26.4642C24.6612 26.4558 24.665 26.4474 24.6689 26.4391C24.6731 26.4307 24.6773 26.4226 24.6818 26.4146C24.686 26.4065 24.6909 26.3985 24.6958 26.3904C24.7007 26.3827 24.7056 26.375 24.7109 26.3674C24.7161 26.3597 24.7217 26.3523 24.7269 26.345C24.7325 26.3376 24.7385 26.3306 24.7444 26.3233C24.7504 26.3159 24.7567 26.3089 24.763 26.3019C24.7693 26.2953 24.7759 26.2887 24.7826 26.2824C24.7892 26.2761 24.7958 26.2698 24.8028 26.2635C24.8098 26.2572 24.8172 26.2512 24.8245 26.2456C24.8319 26.24 24.8392 26.2344 24.8469 26.2288C24.8546 26.2236 24.8623 26.2184 24.8703 26.2131C24.878 26.2082 24.8861 26.2033 24.8941 26.1988C24.9022 26.1942 24.9102 26.19 24.9186 26.1858C24.927 26.1816 24.9354 26.1774 24.9438 26.1736C24.9522 26.1701 24.9609 26.1666 24.9697 26.1631C24.9781 26.1596 24.9868 26.1564 24.9956 26.1533C25.0043 26.1505 25.0134 26.1481 25.0221 26.1456C25.0312 26.1432 25.0403 26.1407 25.0494 26.1386C25.0585 26.1365 25.0676 26.1351 25.0763 26.1334C25.0858 26.1316 25.0949 26.1302 25.1043 26.1292C25.1134 26.1278 25.1225 26.1264 25.1316 26.1253C25.1411 26.125 25.1501 26.125 25.1596 26.1253C25.1634 26.1253 25.1669 26.1253 25.1708 26.1257Z" fill="white"/>
<path d="M25.1708 26.1257C25.1802 26.1253 25.1893 26.1253 25.1988 26.1257C25.2016 26.1257 25.2044 26.1257 25.2075 26.126C25.217 26.1271 25.2264 26.1281 25.2358 26.1295C25.2449 26.1306 25.254 26.1316 25.2635 26.1334C25.2729 26.1351 25.282 26.1369 25.2907 26.1393C25.2988 26.1407 25.3072 26.1425 25.3152 26.1446C25.3166 26.1446 25.3177 26.1446 25.3187 26.1446C25.3215 26.1456 25.3243 26.147 25.3271 26.1484C25.3394 26.1519 25.3513 26.1561 25.3635 26.1606C25.3722 26.1638 25.3806 26.1673 25.389 26.1711C25.3978 26.1746 25.4062 26.1785 25.4149 26.1827C25.423 26.1869 25.4314 26.1911 25.4394 26.1956C25.4474 26.2002 25.4555 26.2044 25.4635 26.2093C25.4712 26.2142 25.4789 26.2191 25.4866 26.2247C25.4943 26.2299 25.502 26.2351 25.5093 26.2411C25.5167 26.2467 25.5237 26.2526 25.5307 26.2586C25.5377 26.2645 25.5447 26.2708 25.5513 26.2771C25.558 26.2834 25.5646 26.2901 25.5709 26.2967C25.5776 26.3033 25.5838 26.31 25.5898 26.317C25.5957 26.324 25.6017 26.3313 25.6076 26.3387C25.6136 26.346 25.6192 26.3534 25.6244 26.3611C25.6297 26.3684 25.6349 26.3761 25.6398 26.3841C25.6451 26.3918 25.6496 26.3999 25.6541 26.4079C25.6587 26.416 25.6629 26.4244 25.6671 26.4328C25.6713 26.4408 25.6751 26.4492 25.679 26.4576C25.6828 26.4663 25.6863 26.4747 25.6898 26.4835C25.693 26.4922 25.6961 26.501 25.6989 26.5097C25.7017 26.5184 25.7045 26.5275 25.707 26.5363C25.7094 26.545 25.7119 26.5541 25.7136 26.5629C25.7157 26.572 25.7175 26.5811 25.7189 26.5905C25.7206 26.5996 25.722 26.6087 25.723 26.6181C25.7244 26.6276 25.7258 26.6367 25.7265 26.6461C25.7269 26.6552 25.7269 26.6643 25.7265 26.6737C25.7265 26.6772 25.7265 26.6807 25.7265 26.6846C25.7269 26.6937 25.7269 26.7028 25.7265 26.7119C25.7265 26.7147 25.7265 26.7178 25.7262 26.7206C25.7251 26.7297 25.7241 26.7388 25.7223 26.7482C25.7213 26.7577 25.7202 26.7671 25.7189 26.7762C25.7171 26.7857 25.715 26.7948 25.7129 26.8039C25.7115 26.8119 25.7098 26.8203 25.7077 26.8283C25.7077 26.8297 25.7077 26.8308 25.7077 26.8322C25.7063 26.835 25.7052 26.8378 25.7042 26.8402C25.7003 26.8525 25.6965 26.8647 25.6919 26.8766C25.6888 26.8853 25.6853 26.8941 25.6814 26.9025C25.6779 26.9109 25.6744 26.9193 25.6702 26.9277C25.666 26.9361 25.6618 26.9441 25.6573 26.9521C25.6527 26.9602 25.6482 26.9686 25.6433 26.9763C25.6384 26.9843 25.6335 26.992 25.6283 26.9997C25.623 27.0074 25.6178 27.0148 25.6122 27.0224C25.6066 27.0298 25.6006 27.0368 25.5947 27.0438C25.5887 27.0508 25.5824 27.0578 25.5762 27.0644C25.5699 27.0714 25.5632 27.0777 25.5566 27.084C25.5499 27.0906 25.5429 27.0969 25.5359 27.1029C25.5289 27.1088 25.5216 27.1148 25.5142 27.1207C25.5069 27.1263 25.4996 27.1319 25.4919 27.1375C25.4842 27.1428 25.4768 27.148 25.4688 27.1529C25.4611 27.1578 25.453 27.1627 25.445 27.1672C25.4369 27.1718 25.4286 27.176 25.4205 27.1802C25.4121 27.1844 25.4037 27.1886 25.3953 27.1924C25.3869 27.1963 25.3785 27.1998 25.3698 27.2029C25.3611 27.2064 25.3523 27.2096 25.3436 27.2127C25.3348 27.2155 25.3257 27.2183 25.3166 27.2204C25.3075 27.2229 25.2988 27.225 25.2897 27.2271C25.2806 27.2292 25.2715 27.2309 25.2624 27.2323C25.2533 27.2341 25.2442 27.2354 25.2348 27.2365C25.2257 27.2379 25.2166 27.2393 25.2072 27.2403C25.1977 27.2407 25.1886 27.2407 25.1795 27.2403C25.176 27.2403 25.1722 27.2403 25.1687 27.2403C25.1592 27.2407 25.1501 27.2407 25.1407 27.2403C25.1379 27.2403 25.1351 27.2403 25.1323 27.24C25.1229 27.2389 25.1134 27.2379 25.104 27.2361C25.0949 27.2351 25.0858 27.2337 25.0767 27.2326C25.0676 27.2309 25.0585 27.2288 25.0498 27.2267C25.0414 27.2253 25.033 27.2236 25.0249 27.2215C25.0235 27.2215 25.0225 27.2215 25.0214 27.2215C25.0186 27.2201 25.0158 27.219 25.0134 27.218C25.0008 27.2145 24.9886 27.2103 24.9767 27.2057C24.9679 27.2026 24.9595 27.1991 24.9511 27.1952C24.9424 27.1917 24.934 27.1879 24.9256 27.1837C24.9172 27.1795 24.9092 27.1753 24.9011 27.1707C24.8927 27.1662 24.885 27.1616 24.877 27.1571C24.8689 27.1522 24.8612 27.1473 24.8536 27.1421C24.8459 27.1368 24.8382 27.1316 24.8308 27.1256C24.8235 27.12 24.8165 27.1144 24.8091 27.1081C24.8021 27.1022 24.7951 27.0962 24.7885 27.0899C24.7819 27.0837 24.7752 27.077 24.7689 27.0704C24.7626 27.0637 24.7563 27.0571 24.75 27.0504C24.7437 27.0434 24.7381 27.0361 24.7322 27.0287C24.7266 27.0214 24.721 27.0141 24.7154 27.0064C24.7102 26.999 24.7049 26.9913 24.7 26.9833C24.6948 26.9756 24.6902 26.9675 24.6857 26.9595C24.6811 26.9514 24.6769 26.9431 24.6727 26.9347C24.6685 26.9266 24.6643 26.9182 24.6608 26.9098C24.657 26.9014 24.6538 26.893 24.6503 26.8843C24.6469 26.8755 24.6437 26.8668 24.6406 26.8581C24.6378 26.8493 24.6353 26.8406 24.6329 26.8318C24.6304 26.8227 24.628 26.8136 24.6259 26.8045C24.6238 26.7955 24.622 26.7864 24.6206 26.7769C24.6189 26.7678 24.6175 26.7587 24.6164 26.7493C24.615 26.7402 24.6136 26.7307 24.6126 26.7217C24.6122 26.7126 24.6122 26.7031 24.6126 26.694C24.6126 26.6905 24.6126 26.687 24.6126 26.6835C24.6122 26.6741 24.6122 26.6646 24.6126 26.6552C24.6126 26.6524 24.6126 26.6496 24.6129 26.6468C24.614 26.6374 24.615 26.6279 24.6168 26.6185C24.6178 26.6094 24.6189 26.6003 24.6203 26.5908C24.622 26.5818 24.6241 26.5727 24.6262 26.5632C24.6276 26.5552 24.6294 26.5468 24.6315 26.5387C24.6315 26.5377 24.6315 26.5363 24.6315 26.5349C24.6325 26.5321 24.6339 26.5293 24.635 26.5268C24.6388 26.5146 24.6427 26.5024 24.6472 26.4905C24.6503 26.4817 24.6538 26.473 24.6577 26.4642C24.6612 26.4558 24.665 26.4474 24.6689 26.4391C24.6731 26.4307 24.6773 26.4226 24.6818 26.4146C24.686 26.4065 24.6909 26.3985 24.6958 26.3904C24.7007 26.3827 24.7056 26.375 24.7109 26.3674C24.7161 26.3597 24.7217 26.3523 24.7269 26.345C24.7325 26.3376 24.7385 26.3306 24.7444 26.3233C24.7504 26.3159 24.7567 26.3089 24.763 26.3019C24.7693 26.2953 24.7759 26.2887 24.7826 26.2824C24.7892 26.2761 24.7958 26.2698 24.8028 26.2635C24.8098 26.2572 24.8172 26.2512 24.8245 26.2456C24.8319 26.24 24.8392 26.2344 24.8469 26.2288C24.8546 26.2236 24.8623 26.2184 24.8703 26.2131C24.878 26.2082 24.8861 26.2033 24.8941 26.1988C24.9022 26.1942 24.9102 26.19 24.9186 26.1858C24.927 26.1816 24.9354 26.1774 24.9438 26.1736C24.9522 26.1701 24.9609 26.1666 24.9697 26.1631C24.9781 26.1596 24.9868 26.1564 24.9956 26.1533C25.0043 26.1505 25.0134 26.1481 25.0221 26.1456C25.0312 26.1432 25.0403 26.1407 25.0494 26.1386C25.0585 26.1365 25.0676 26.1351 25.0763 26.1334C25.0858 26.1316 25.0949 26.1302 25.1043 26.1292C25.1134 26.1278 25.1225 26.1264 25.1316 26.1253C25.1411 26.125 25.1501 26.125 25.1596 26.1253C25.1634 26.1253 25.1669 26.1253 25.1708 26.1257Z" fill="white"/>
<path d="M25.1708 26.1257C25.1802 26.1253 25.1893 26.1253 25.1988 26.1257C25.2016 26.1257 25.2044 26.1257 25.2075 26.126C25.217 26.1271 25.2264 26.1281 25.2358 26.1295C25.2449 26.1306 25.254 26.1316 25.2635 26.1334C25.2729 26.1351 25.282 26.1369 25.2907 26.1393C25.2988 26.1407 25.3072 26.1425 25.3152 26.1446C25.3166 26.1446 25.3177 26.1446 25.3187 26.1446C25.3215 26.1456 25.3243 26.147 25.3271 26.1484C25.3394 26.1519 25.3513 26.1561 25.3635 26.1606C25.3722 26.1638 25.3806 26.1673 25.389 26.1711C25.3978 26.1746 25.4062 26.1785 25.4149 26.1827C25.423 26.1869 25.4314 26.1911 25.4394 26.1956C25.4474 26.2002 25.4555 26.2044 25.4635 26.2093C25.4712 26.2142 25.4789 26.2191 25.4866 26.2247C25.4943 26.2299 25.502 26.2351 25.5093 26.2411C25.5167 26.2467 25.5237 26.2526 25.5307 26.2586C25.5377 26.2645 25.5447 26.2708 25.5513 26.2771C25.558 26.2834 25.5646 26.2901 25.5709 26.2967C25.5776 26.3033 25.5838 26.31 25.5898 26.317C25.5957 26.324 25.6017 26.3313 25.6076 26.3387C25.6136 26.346 25.6192 26.3534 25.6244 26.3611C25.6297 26.3684 25.6349 26.3761 25.6398 26.3841C25.6451 26.3918 25.6496 26.3999 25.6541 26.4079C25.6587 26.416 25.6629 26.4244 25.6671 26.4328C25.6713 26.4408 25.6751 26.4492 25.679 26.4576C25.6828 26.4663 25.6863 26.4747 25.6898 26.4835C25.693 26.4922 25.6961 26.501 25.6989 26.5097C25.7017 26.5184 25.7045 26.5275 25.707 26.5363C25.7094 26.545 25.7119 26.5541 25.7136 26.5629C25.7157 26.572 25.7175 26.5811 25.7189 26.5905C25.7206 26.5996 25.722 26.6087 25.723 26.6181C25.7244 26.6276 25.7258 26.6367 25.7265 26.6461C25.7269 26.6552 25.7269 26.6643 25.7265 26.6737C25.7265 26.6772 25.7265 26.6807 25.7265 26.6846C25.7269 26.6937 25.7269 26.7028 25.7265 26.7119C25.7265 26.7147 25.7265 26.7178 25.7262 26.7206C25.7251 26.7297 25.7241 26.7388 25.7223 26.7482C25.7213 26.7577 25.7202 26.7671 25.7189 26.7762C25.7171 26.7857 25.715 26.7948 25.7129 26.8039C25.7115 26.8119 25.7098 26.8203 25.7077 26.8283C25.7077 26.8297 25.7077 26.8308 25.7077 26.8322C25.7063 26.835 25.7052 26.8378 25.7042 26.8402C25.7003 26.8525 25.6965 26.8647 25.6919 26.8766C25.6888 26.8853 25.6853 26.8941 25.6814 26.9025C25.6779 26.9109 25.6744 26.9193 25.6702 26.9277C25.666 26.9361 25.6618 26.9441 25.6573 26.9521C25.6527 26.9602 25.6482 26.9686 25.6433 26.9763C25.6384 26.9843 25.6335 26.992 25.6283 26.9997C25.623 27.0074 25.6178 27.0148 25.6122 27.0224C25.6066 27.0298 25.6006 27.0368 25.5947 27.0438C25.5887 27.0508 25.5824 27.0578 25.5762 27.0644C25.5699 27.0714 25.5632 27.0777 25.5566 27.084C25.5499 27.0906 25.5429 27.0969 25.5359 27.1029C25.5289 27.1088 25.5216 27.1148 25.5142 27.1207C25.5069 27.1263 25.4996 27.1319 25.4919 27.1375C25.4842 27.1428 25.4768 27.148 25.4688 27.1529C25.4611 27.1578 25.453 27.1627 25.445 27.1672C25.4369 27.1718 25.4286 27.176 25.4205 27.1802C25.4121 27.1844 25.4037 27.1886 25.3953 27.1924C25.3869 27.1963 25.3785 27.1998 25.3698 27.2029C25.3611 27.2064 25.3523 27.2096 25.3436 27.2127C25.3348 27.2155 25.3257 27.2183 25.3166 27.2204C25.3075 27.2229 25.2988 27.225 25.2897 27.2271C25.2806 27.2292 25.2715 27.2309 25.2624 27.2323C25.2533 27.2341 25.2442 27.2354 25.2348 27.2365C25.2257 27.2379 25.2166 27.2393 25.2072 27.2403C25.1977 27.2407 25.1886 27.2407 25.1795 27.2403C25.176 27.2403 25.1722 27.2403 25.1687 27.2403C25.1592 27.2407 25.1501 27.2407 25.1407 27.2403C25.1379 27.2403 25.1351 27.2403 25.1323 27.24C25.1229 27.2389 25.1134 27.2379 25.104 27.2361C25.0949 27.2351 25.0858 27.2337 25.0767 27.2326C25.0676 27.2309 25.0585 27.2288 25.0498 27.2267C25.0414 27.2253 25.033 27.2236 25.0249 27.2215C25.0235 27.2215 25.0225 27.2215 25.0214 27.2215C25.0186 27.2201 25.0158 27.219 25.0134 27.218C25.0008 27.2145 24.9886 27.2103 24.9767 27.2057C24.9679 27.2026 24.9595 27.1991 24.9511 27.1952C24.9424 27.1917 24.934 27.1879 24.9256 27.1837C24.9172 27.1795 24.9092 27.1753 24.9011 27.1707C24.8927 27.1662 24.885 27.1616 24.877 27.1571C24.8689 27.1522 24.8612 27.1473 24.8536 27.1421C24.8459 27.1368 24.8382 27.1316 24.8308 27.1256C24.8235 27.12 24.8165 27.1144 24.8091 27.1081C24.8021 27.1022 24.7951 27.0962 24.7885 27.0899C24.7819 27.0837 24.7752 27.077 24.7689 27.0704C24.7626 27.0637 24.7563 27.0571 24.75 27.0504C24.7437 27.0434 24.7381 27.0361 24.7322 27.0287C24.7266 27.0214 24.721 27.0141 24.7154 27.0064C24.7102 26.999 24.7049 26.9913 24.7 26.9833C24.6948 26.9756 24.6902 26.9675 24.6857 26.9595C24.6811 26.9514 24.6769 26.9431 24.6727 26.9347C24.6685 26.9266 24.6643 26.9182 24.6608 26.9098C24.657 26.9014 24.6538 26.893 24.6503 26.8843C24.6469 26.8755 24.6437 26.8668 24.6406 26.8581C24.6378 26.8493 24.6353 26.8406 24.6329 26.8318C24.6304 26.8227 24.628 26.8136 24.6259 26.8045C24.6238 26.7955 24.622 26.7864 24.6206 26.7769C24.6189 26.7678 24.6175 26.7587 24.6164 26.7493C24.615 26.7402 24.6136 26.7307 24.6126 26.7217C24.6122 26.7126 24.6122 26.7031 24.6126 26.694C24.6126 26.6905 24.6126 26.687 24.6126 26.6835C24.6122 26.6741 24.6122 26.6646 24.6126 26.6552C24.6126 26.6524 24.6126 26.6496 24.6129 26.6468C24.614 26.6374 24.615 26.6279 24.6168 26.6185C24.6178 26.6094 24.6189 26.6003 24.6203 26.5908C24.622 26.5818 24.6241 26.5727 24.6262 26.5632C24.6276 26.5552 24.6294 26.5468 24.6315 26.5387C24.6315 26.5377 24.6315 26.5363 24.6315 26.5349C24.6325 26.5321 24.6339 26.5293 24.635 26.5268C24.6388 26.5146 24.6427 26.5024 24.6472 26.4905C24.6503 26.4817 24.6538 26.473 24.6577 26.4642C24.6612 26.4558 24.665 26.4474 24.6689 26.4391C24.6731 26.4307 24.6773 26.4226 24.6818 26.4146C24.686 26.4065 24.6909 26.3985 24.6958 26.3904C24.7007 26.3827 24.7056 26.375 24.7109 26.3674C24.7161 26.3597 24.7217 26.3523 24.7269 26.345C24.7325 26.3376 24.7385 26.3306 24.7444 26.3233C24.7504 26.3159 24.7567 26.3089 24.763 26.3019C24.7693 26.2953 24.7759 26.2887 24.7826 26.2824C24.7892 26.2761 24.7958 26.2698 24.8028 26.2635C24.8098 26.2572 24.8172 26.2512 24.8245 26.2456C24.8319 26.24 24.8392 26.2344 24.8469 26.2288C24.8546 26.2236 24.8623 26.2184 24.8703 26.2131C24.878 26.2082 24.8861 26.2033 24.8941 26.1988C24.9022 26.1942 24.9102 26.19 24.9186 26.1858C24.927 26.1816 24.9354 26.1774 24.9438 26.1736C24.9522 26.1701 24.9609 26.1666 24.9697 26.1631C24.9781 26.1596 24.9868 26.1564 24.9956 26.1533C25.0043 26.1505 25.0134 26.1481 25.0221 26.1456C25.0312 26.1432 25.0403 26.1407 25.0494 26.1386C25.0585 26.1365 25.0676 26.1351 25.0763 26.1334C25.0858 26.1316 25.0949 26.1302 25.1043 26.1292C25.1134 26.1278 25.1225 26.1264 25.1316 26.1253C25.1411 26.125 25.1501 26.125 25.1596 26.1253C25.1634 26.1253 25.1669 26.1253 25.1708 26.1257Z" fill="white"/>
<path d="M25.1708 26.1257C25.1802 26.1253 25.1893 26.1253 25.1988 26.1257C25.2016 26.1257 25.2044 26.1257 25.2075 26.126C25.217 26.1271 25.2264 26.1281 25.2358 26.1295C25.2449 26.1306 25.254 26.1316 25.2635 26.1334C25.2729 26.1351 25.282 26.1369 25.2907 26.1393C25.2988 26.1407 25.3072 26.1425 25.3152 26.1446C25.3166 26.1446 25.3177 26.1446 25.3187 26.1446C25.3215 26.1456 25.3243 26.147 25.3271 26.1484C25.3394 26.1519 25.3513 26.1561 25.3635 26.1606C25.3722 26.1638 25.3806 26.1673 25.389 26.1711C25.3978 26.1746 25.4062 26.1785 25.4149 26.1827C25.423 26.1869 25.4314 26.1911 25.4394 26.1956C25.4474 26.2002 25.4555 26.2044 25.4635 26.2093C25.4712 26.2142 25.4789 26.2191 25.4866 26.2247C25.4943 26.2299 25.502 26.2351 25.5093 26.2411C25.5167 26.2467 25.5237 26.2526 25.5307 26.2586C25.5377 26.2645 25.5447 26.2708 25.5513 26.2771C25.558 26.2834 25.5646 26.2901 25.5709 26.2967C25.5776 26.3033 25.5838 26.31 25.5898 26.317C25.5957 26.324 25.6017 26.3313 25.6076 26.3387C25.6136 26.346 25.6192 26.3534 25.6244 26.3611C25.6297 26.3684 25.6349 26.3761 25.6398 26.3841C25.6451 26.3918 25.6496 26.3999 25.6541 26.4079C25.6587 26.416 25.6629 26.4244 25.6671 26.4328C25.6713 26.4408 25.6751 26.4492 25.679 26.4576C25.6828 26.4663 25.6863 26.4747 25.6898 26.4835C25.693 26.4922 25.6961 26.501 25.6989 26.5097C25.7017 26.5184 25.7045 26.5275 25.707 26.5363C25.7094 26.545 25.7119 26.5541 25.7136 26.5629C25.7157 26.572 25.7175 26.5811 25.7189 26.5905C25.7206 26.5996 25.722 26.6087 25.723 26.6181C25.7244 26.6276 25.7258 26.6367 25.7265 26.6461C25.7269 26.6552 25.7269 26.6643 25.7265 26.6737C25.7265 26.6772 25.7265 26.6807 25.7265 26.6846C25.7269 26.6937 25.7269 26.7028 25.7265 26.7119C25.7265 26.7147 25.7265 26.7178 25.7262 26.7206C25.7251 26.7297 25.7241 26.7388 25.7223 26.7482C25.7213 26.7577 25.7202 26.7671 25.7189 26.7762C25.7171 26.7857 25.715 26.7948 25.7129 26.8039C25.7115 26.8119 25.7098 26.8203 25.7077 26.8283C25.7077 26.8297 25.7077 26.8308 25.7077 26.8322C25.7063 26.835 25.7052 26.8378 25.7042 26.8402C25.7003 26.8525 25.6965 26.8647 25.6919 26.8766C25.6888 26.8853 25.6853 26.8941 25.6814 26.9025C25.6779 26.9109 25.6744 26.9193 25.6702 26.9277C25.666 26.9361 25.6618 26.9441 25.6573 26.9521C25.6527 26.9602 25.6482 26.9686 25.6433 26.9763C25.6384 26.9843 25.6335 26.992 25.6283 26.9997C25.623 27.0074 25.6178 27.0148 25.6122 27.0224C25.6066 27.0298 25.6006 27.0368 25.5947 27.0438C25.5887 27.0508 25.5824 27.0578 25.5762 27.0644C25.5699 27.0714 25.5632 27.0777 25.5566 27.084C25.5499 27.0906 25.5429 27.0969 25.5359 27.1029C25.5289 27.1088 25.5216 27.1148 25.5142 27.1207C25.5069 27.1263 25.4996 27.1319 25.4919 27.1375C25.4842 27.1428 25.4768 27.148 25.4688 27.1529C25.4611 27.1578 25.453 27.1627 25.445 27.1672C25.4369 27.1718 25.4286 27.176 25.4205 27.1802C25.4121 27.1844 25.4037 27.1886 25.3953 27.1924C25.3869 27.1963 25.3785 27.1998 25.3698 27.2029C25.3611 27.2064 25.3523 27.2096 25.3436 27.2127C25.3348 27.2155 25.3257 27.2183 25.3166 27.2204C25.3075 27.2229 25.2988 27.225 25.2897 27.2271C25.2806 27.2292 25.2715 27.2309 25.2624 27.2323C25.2533 27.2341 25.2442 27.2354 25.2348 27.2365C25.2257 27.2379 25.2166 27.2393 25.2072 27.2403C25.1977 27.2407 25.1886 27.2407 25.1795 27.2403C25.176 27.2403 25.1722 27.2403 25.1687 27.2403C25.1592 27.2407 25.1501 27.2407 25.1407 27.2403C25.1379 27.2403 25.1351 27.2403 25.1323 27.24C25.1229 27.2389 25.1134 27.2379 25.104 27.2361C25.0949 27.2351 25.0858 27.2337 25.0767 27.2326C25.0676 27.2309 25.0585 27.2288 25.0498 27.2267C25.0414 27.2253 25.033 27.2236 25.0249 27.2215C25.0235 27.2215 25.0225 27.2215 25.0214 27.2215C25.0186 27.2201 25.0158 27.219 25.0134 27.218C25.0008 27.2145 24.9886 27.2103 24.9767 27.2057C24.9679 27.2026 24.9595 27.1991 24.9511 27.1952C24.9424 27.1917 24.934 27.1879 24.9256 27.1837C24.9172 27.1795 24.9092 27.1753 24.9011 27.1707C24.8927 27.1662 24.885 27.1616 24.877 27.1571C24.8689 27.1522 24.8612 27.1473 24.8536 27.1421C24.8459 27.1368 24.8382 27.1316 24.8308 27.1256C24.8235 27.12 24.8165 27.1144 24.8091 27.1081C24.8021 27.1022 24.7951 27.0962 24.7885 27.0899C24.7819 27.0837 24.7752 27.077 24.7689 27.0704C24.7626 27.0637 24.7563 27.0571 24.75 27.0504C24.7437 27.0434 24.7381 27.0361 24.7322 27.0287C24.7266 27.0214 24.721 27.0141 24.7154 27.0064C24.7102 26.999 24.7049 26.9913 24.7 26.9833C24.6948 26.9756 24.6902 26.9675 24.6857 26.9595C24.6811 26.9514 24.6769 26.9431 24.6727 26.9347C24.6685 26.9266 24.6643 26.9182 24.6608 26.9098C24.657 26.9014 24.6538 26.893 24.6503 26.8843C24.6469 26.8755 24.6437 26.8668 24.6406 26.8581C24.6378 26.8493 24.6353 26.8406 24.6329 26.8318C24.6304 26.8227 24.628 26.8136 24.6259 26.8045C24.6238 26.7955 24.622 26.7864 24.6206 26.7769C24.6189 26.7678 24.6175 26.7587 24.6164 26.7493C24.615 26.7402 24.6136 26.7307 24.6126 26.7217C24.6122 26.7126 24.6122 26.7031 24.6126 26.694C24.6126 26.6905 24.6126 26.687 24.6126 26.6835C24.6122 26.6741 24.6122 26.6646 24.6126 26.6552C24.6126 26.6524 24.6126 26.6496 24.6129 26.6468C24.614 26.6374 24.615 26.6279 24.6168 26.6185C24.6178 26.6094 24.6189 26.6003 24.6203 26.5908C24.622 26.5818 24.6241 26.5727 24.6262 26.5632C24.6276 26.5552 24.6294 26.5468 24.6315 26.5387C24.6315 26.5377 24.6315 26.5363 24.6315 26.5349C24.6325 26.5321 24.6339 26.5293 24.635 26.5268C24.6388 26.5146 24.6427 26.5024 24.6472 26.4905C24.6503 26.4817 24.6538 26.473 24.6577 26.4642C24.6612 26.4558 24.665 26.4474 24.6689 26.4391C24.6731 26.4307 24.6773 26.4226 24.6818 26.4146C24.686 26.4065 24.6909 26.3985 24.6958 26.3904C24.7007 26.3827 24.7056 26.375 24.7109 26.3674C24.7161 26.3597 24.7217 26.3523 24.7269 26.345C24.7325 26.3376 24.7385 26.3306 24.7444 26.3233C24.7504 26.3159 24.7567 26.3089 24.763 26.3019C24.7693 26.2953 24.7759 26.2887 24.7826 26.2824C24.7892 26.2761 24.7958 26.2698 24.8028 26.2635C24.8098 26.2572 24.8172 26.2512 24.8245 26.2456C24.8319 26.24 24.8392 26.2344 24.8469 26.2288C24.8546 26.2236 24.8623 26.2184 24.8703 26.2131C24.878 26.2082 24.8861 26.2033 24.8941 26.1988C24.9022 26.1942 24.9102 26.19 24.9186 26.1858C24.927 26.1816 24.9354 26.1774 24.9438 26.1736C24.9522 26.1701 24.9609 26.1666 24.9697 26.1631C24.9781 26.1596 24.9868 26.1564 24.9956 26.1533C25.0043 26.1505 25.0134 26.1481 25.0221 26.1456C25.0312 26.1432 25.0403 26.1407 25.0494 26.1386C25.0585 26.1365 25.0676 26.1351 25.0763 26.1334C25.0858 26.1316 25.0949 26.1302 25.1043 26.1292C25.1134 26.1278 25.1225 26.1264 25.1316 26.1253C25.1411 26.125 25.1501 26.125 25.1596 26.1253C25.1634 26.1253 25.1669 26.1253 25.1708 26.1257Z" fill="white"/>
<path opacity="0.1" d="M6.7819 50.0116C6.7819 51.2714 8.51319 52.4794 11.5949 53.3703C14.6766 54.2611 18.8562 54.7616 23.2141 54.7616C27.5721 54.7616 31.7517 54.2611 34.8334 53.3703C37.9151 52.4794 39.646 51.2714 39.646 50.0116C39.646 48.7517 37.9147 47.5437 34.8334 46.6529C31.7517 45.762 27.5721 45.2615 23.2141 45.2615C18.8562 45.2615 14.6766 45.762 11.5949 46.6529C8.51319 47.5437 6.7819 48.7517 6.7819 50.0116Z" fill="#68898C"/>
<path d="M23.2141 12.9326C33.2605 12.9326 37.6957 16.0524 40.0223 19.1813C41.1856 20.7457 41.8585 22.2336 42.4863 23.136C43.1141 24.0384 43.4009 24.3367 44.4645 24.3367C45.5187 24.3367 46.2266 23.7547 47.3853 22.3581C48.5441 20.9615 49.934 18.9025 52.0668 16.812L53.9646 18.7476C52.0497 20.6247 50.7724 22.5211 49.472 24.0887C48.1712 25.6563 46.6271 27.0473 44.4649 27.0473C42.5395 27.0473 41.1216 25.92 40.2619 24.6843C39.4018 23.4483 38.8041 22.085 37.8479 20.7986C35.935 18.2258 32.7344 15.6432 23.2144 15.6432V12.9326H23.2141Z" fill="#68898C"/>
<path d="M49.2755 19.6241L48.5749 20.3156C48.5749 20.3156 48.6144 21.1022 49.6347 21.8849C50.6549 22.6677 51.4247 22.5022 51.4247 22.5022L51.8826 21.6971L49.2755 19.6241Z" fill="#FFBF8C"/>
<path d="M56.3963 14.9601C56.4502 14.5498 56.0308 13.9126 54.9934 14.0521C53.6315 14.2351 51.9803 15.2417 51.9803 15.2417L53.4744 16.7239L56.3963 14.9601Z" fill="#FDAD6D"/>
<path d="M57.615 16.753C58.7992 16.0258 58.0588 14.8485 56.8049 14.9216C55.0708 15.0227 53.9345 15.9006 53.9345 15.9006L53.3784 16.2546L54.5616 17.9159L57.615 16.753Z" fill="#FDAD6D"/>
<path d="M55.0514 19.1865C55.0514 19.1865 56.1314 18.4069 57.3643 18.3307C58.7126 18.2475 58.4933 16.5015 56.89 16.6889C55.8187 16.8142 55.0157 17.2545 55.0157 17.2545L54.3389 17.5857L55.0514 19.1865Z" fill="#FDAD6D"/>
<path d="M55.0514 19.1865C55.0514 19.1865 55.6995 16.514 51.9806 15.2416C50.995 15.5057 49.9891 15.9933 49.4469 16.62C48.3977 17.8323 48.3847 19.2201 49.576 20.4114L50.982 21.4904C52.5122 22.1241 54.4516 20.7618 55.0514 19.1865Z" fill="#FDAD6D"/>
<path d="M58.1467 17.1772C58.1467 17.5171 57.8924 17.7001 57.514 17.7001C56.9904 17.7001 55.9562 17.7067 54.4931 18.5514C54.4931 18.5514 52.5338 22.3763 50.0495 19.892L51.4412 21.6198C52.879 21.8548 54.5103 20.6076 55.0513 19.1862C55.0513 19.1862 56.1314 18.4066 57.3643 18.3303C58.1645 18.281 58.4122 17.6462 58.1467 17.1772Z" fill="#FDAD6D"/>
<path d="M53.6184 20.8524C51.1187 21.5485 49.0069 19.5667 49.0132 17.3503C47.9219 20.4006 51.3691 23.0622 53.6184 20.8524Z" fill="#FDAD6D"/>
<path d="M50.5146 16.322C50.5146 16.322 50.231 15.5931 49.6892 15.0395C48.3318 13.6527 47.0821 15.3008 48.0604 16.2713C48.8246 17.0296 48.8799 17.8022 48.8799 17.8022C50.4818 17.9722 50.5146 16.322 50.5146 16.322Z" fill="#FDAD6D"/>
<path d="M25.072 42.5055H31.498C31.498 43.7555 31.8765 44.2109 31.639 47.0285C29.3656 49.7755 24.9307 47.0285 24.9307 47.0285C24.6932 44.2113 25.072 43.7555 25.072 42.5055Z" fill="#68898C"/>
<path d="M26.8411 49.2477C26.8411 49.2477 28.0897 50.9307 31.7195 50.9307C35.3489 50.9307 36.5979 49.2477 36.5979 49.2477C36.5979 46.9061 35.9271 43.2494 31.7195 43.2494C27.5116 43.2494 26.8411 46.9061 26.8411 49.2477Z" fill="#95B0B2"/>
<path d="M24.8564 45.5787C25.1886 45.9365 28.0353 48.9098 31.7196 48.9098C34.7614 48.9098 36.1028 47.7077 36.4326 47.3527C36.5567 48.0148 36.5977 48.6709 36.5977 49.2477C36.5977 49.2477 35.349 50.9307 31.7193 50.9307C29.2203 50.8677 26.6513 49.8888 24.9309 47.6217C24.8623 46.8078 24.8459 46.1446 24.8564 45.5787Z" fill="#68898C"/>
<path d="M31.9175 42.3529C31.9175 41.3435 30.2911 41.0378 28.2853 41.0378C26.2791 41.0378 24.6527 41.3439 24.6527 42.3529C24.6527 43.3623 26.2791 43.6684 28.2853 43.6684C30.2911 43.668 31.9175 43.3623 31.9175 42.3529Z" fill="#95B0B2"/>
<path d="M31.8213 41.9644C31.8836 42.0805 31.9175 42.2092 31.9175 42.3526C31.9175 43.362 30.2911 43.6921 28.2853 43.6921C26.2791 43.6921 24.6527 43.362 24.6527 42.3526C24.6527 42.2092 24.6866 42.0805 24.7485 41.9644C24.9129 42.8443 26.433 43.1171 28.2849 43.1171C30.1369 43.1171 31.6569 42.8443 31.8213 41.9644Z" fill="#95B0B2"/>
<path d="M31.7195 43.2494C32.2021 43.2494 32.6379 43.298 33.0317 43.3868V44.7019H28.8322C28.8913 44.4368 28.9718 44.1766 29.0722 43.9237C29.743 43.5051 30.6076 43.2494 31.7195 43.2494Z" fill="#95B0B2"/>
<path d="M21.356 42.5055H14.9303C14.9303 43.7555 14.5515 44.2109 14.789 47.0285C17.0624 49.7755 21.497 47.0285 21.497 47.0285C21.7348 44.2113 21.356 43.7555 21.356 42.5055Z" fill="#68898C"/>
<path d="M19.5869 49.2477C19.5869 49.2477 18.3383 50.9307 14.7085 50.9307C11.0788 50.9307 9.83012 49.2477 9.83012 49.2477C9.83012 46.9061 10.501 43.2494 14.7085 43.2494C18.9161 43.2494 19.5869 46.9061 19.5869 49.2477Z" fill="#95B0B2"/>
<path d="M21.5717 45.5787C21.2394 45.9365 18.3931 48.9098 14.7084 48.9098C11.6666 48.9098 10.3253 47.7077 9.99548 47.3527C9.87131 48.0148 9.83039 48.6709 9.83039 49.2477C9.83039 49.2477 11.079 50.9307 14.7084 50.9307C17.2074 50.8677 19.7764 49.8888 21.4968 47.6217C21.5657 46.8078 21.5818 46.1446 21.5717 45.5787Z" fill="#68898C"/>
<path d="M14.5106 42.3529C14.5106 41.3435 16.137 41.0378 18.1428 41.0378C20.149 41.0378 21.7754 41.3439 21.7754 42.3529C21.7754 43.3623 20.149 43.6684 18.1428 43.6684C16.137 43.668 14.5106 43.3623 14.5106 42.3529Z" fill="#95B0B2"/>
<path d="M14.6068 41.9644C14.5445 42.0805 14.5106 42.2092 14.5106 42.3526C14.5106 43.362 16.137 43.6921 18.1428 43.6921C20.149 43.6921 21.7754 43.362 21.7754 42.3526C21.7754 42.2092 21.7415 42.0805 21.6792 41.9644C21.5148 42.8443 19.9944 43.1171 18.1428 43.1171C16.2909 43.1171 14.7708 42.8443 14.6068 41.9644Z" fill="#95B0B2"/>
<path d="M14.7085 43.2494C14.2258 43.2494 13.7904 43.298 13.3962 43.3868V44.7019H17.5957C17.5362 44.4368 17.4562 44.1766 17.3558 43.9237C16.6849 43.5051 15.82 43.2494 14.7085 43.2494Z" fill="#95B0B2"/>
<path d="M24.3215 20.6962C30.523 29.4855 29.6182 39.3011 29.2048 42.0589L26.4232 42.2481C26.4232 42.2481 28.6777 31.5718 22.1068 22.2585L24.3215 20.6962Z" fill="#68898C"/>
<path d="M22.1065 20.6962L24.3215 22.2589C17.7503 31.5722 20.0048 42.2485 20.0048 42.2485L17.247 42.2135C16.8483 39.6876 15.7833 29.6583 22.1065 20.6962Z" fill="#68898C"/>
<path d="M23.1351 12.935L23.2925 15.6411C23.2925 15.6411 15.4055 16.172 9.8741 19.5541C6.44964 21.6478 4.82538 25.6458 5.3 32.5615L2.59569 32.7473C2.0854 25.3073 4.0129 19.9602 8.46004 17.2412C14.8357 13.3432 23.1351 12.935 23.1351 12.935Z" fill="#68898C"/>
<path d="M2.18601 29.1475L2.03771 28.1801C2.03771 28.1801 2.59943 27.5848 4.01349 27.5848C5.4279 27.5848 5.98926 28.1801 5.98926 28.1801L5.84971 29.0902L2.18601 29.1475Z" fill="#FFBF8C"/>
<path d="M8.2725 32.6882C9.10142 33.58 8.15218 34.9395 6.98609 34.289L7.26415 30.5344C7.63594 31.3706 7.48554 31.8414 8.2725 32.6882Z" fill="#FDAD6D"/>
<path d="M2.69684 36.6614C2.5342 38.095 0.685746 37.7663 0.817255 36.4215C0.943866 35.1253 1.23032 34.3257 1.23032 34.3257C0.122642 31.4353 0.999126 29.3036 3.1851 28.7181H4.95766C6.59382 29.1567 7.13175 30.2986 7.13175 31.6473C7.13175 33.3272 6.6183 34.013 7.46961 36.5306C7.93164 37.8971 5.94677 38.4826 5.46971 37.008C4.92654 35.3299 5.04895 34.523 5.04895 34.523C5.04895 34.523 4.90625 35.3456 5.29273 37.9751C5.51377 39.4783 3.36977 39.6735 3.17881 38.2234C2.94867 36.4746 3.11235 34.5566 3.11235 34.5566C3.11235 34.5566 2.83709 35.4239 2.69684 36.6614Z" fill="#FDAD6D"/>
<path d="M0.788482 31.3993C1.95457 28.625 6.38562 28.7936 7.50659 31.2419C6.9274 27.4638 1.1197 27.9594 0.788482 31.3993Z" fill="#FDAD6D"/>
<path d="M7.09878 32.401C7.16523 31.0709 6.58708 29.9248 5.46716 29.5596L6.94593 29.9496L7.50659 31.2423L7.09878 32.401Z" fill="#FDAD6D"/>
<path d="M6.91444 16.4839C6.91444 20.8069 8.63174 24.9526 11.6886 28.0095C14.7455 31.0663 18.8911 32.7833 23.2141 32.7833C27.5371 32.7833 31.6827 31.066 34.7396 28.0095C37.7961 24.9526 39.5134 20.8069 39.5134 16.4839C39.5134 12.1613 37.7961 8.01532 34.7396 4.95845C31.6827 1.90158 27.5371 0.184631 23.2141 0.184631C18.8911 0.184631 14.7455 1.90193 11.6886 4.95845C8.63174 8.01567 6.91444 12.1613 6.91444 16.4839Z" fill="#95B0B2"/>
<path d="M23.2138 0.184631C27.5367 0.184631 31.6824 1.90193 34.7393 4.95845C37.7961 8.01531 39.5134 12.161 39.5134 16.4839C39.5134 16.7596 39.5064 17.0352 39.4924 17.3104C38.9077 20.7678 37.1176 23.9061 34.4395 26.1694C31.7614 28.4327 28.3685 29.6743 24.8622 29.6743C20.9267 29.6743 17.1525 28.1112 14.3698 25.3282C11.5872 22.5456 10.0238 18.7714 10.0238 14.8363C10.0238 11.3299 11.2654 7.93697 13.5287 5.25889C15.7919 2.58081 18.9303 0.79076 22.3876 0.205968C22.6629 0.191628 22.9385 0.184631 23.2138 0.184631Z" fill="#BDCCCD"/>
<path d="M23.214 0C32.3157 0 39.698 7.38264 39.698 16.4843C39.698 25.586 32.3157 32.9687 23.214 32.9687C14.112 32.9687 6.72968 25.5864 6.72968 16.4843C6.73003 7.38264 14.1123 0 23.214 0ZM23.214 0.369692C14.312 0.369692 7.09937 7.58236 7.09937 16.4843C7.09937 25.3863 14.3117 32.599 23.214 32.599C32.116 32.599 39.3283 25.3863 39.3283 16.4843C39.3287 7.58201 32.1163 0.369692 23.214 0.369692Z" fill="#68898C"/>
<path d="M19.7997 6.17806C20.3995 6.23542 21.0532 6.45087 21.7079 6.915C21.9853 7.11191 22.0507 7.49594 21.8541 7.77365C21.6572 8.051 21.2732 8.11676 20.9955 7.91984C19.9987 7.21334 19.253 7.31127 18.6584 7.54141C18.0638 7.7719 17.7036 8.15908 17.7036 8.15908C17.4738 8.40985 17.0842 8.42664 16.8334 8.1972C16.7127 8.08668 16.641 7.93313 16.634 7.7698C16.627 7.60646 16.6851 7.44697 16.7953 7.32666C16.7953 7.32666 17.3332 6.73382 18.2132 6.39281C18.6532 6.22248 19.1995 6.12105 19.7997 6.17806Z" fill="#68898C"/>
<path d="M26.628 6.17806C27.2278 6.12105 27.7741 6.22248 28.2141 6.39281C29.0941 6.73382 29.632 7.32666 29.632 7.32666C29.7426 7.44697 29.8006 7.60646 29.7936 7.7698C29.7866 7.93313 29.7149 8.08703 29.5943 8.1972C29.4739 8.30772 29.3145 8.36578 29.1511 8.35844C28.9878 8.35144 28.8339 8.27974 28.7237 8.15908C28.7237 8.15908 28.3635 7.7719 27.7689 7.54141C27.1743 7.31092 26.429 7.21334 25.4322 7.91984C25.2989 8.01428 25.1335 8.05205 24.9722 8.02477C24.811 7.99749 24.6676 7.9069 24.5728 7.77365C24.3763 7.49629 24.4417 7.11191 24.719 6.915C25.3745 6.45122 26.0282 6.23542 26.628 6.17806Z" fill="#68898C"/>
<path d="M19.1211 17.9002C19.6957 16.8978 20.888 17.6148 23.2139 17.6148C25.5398 17.6148 26.7321 16.8978 27.3068 17.9002C28.0342 19.1691 26.4401 21.5663 23.2139 21.5663C19.9878 21.5663 18.3936 19.1691 19.1211 17.9002Z" fill="#68898C"/>
<path d="M23.2346 19.5391C24.2838 19.5458 25.2635 20.0547 25.8591 20.9025C25.1736 21.3015 24.2842 21.5663 23.2139 21.5663C22.1437 21.5663 21.2546 21.3015 20.5687 20.9028C21.1682 20.0491 22.1573 19.5391 23.2139 19.5391C23.2209 19.5391 23.2276 19.5391 23.2346 19.5391Z" fill="#FDAD6D"/>
<path d="M26.2661 17.3664C26.7379 17.3696 27.0737 17.4931 27.307 17.9002C27.3308 17.9421 27.3521 17.9852 27.3713 18.0296C26.4211 18.7742 24.8695 19.2177 23.2141 19.2177C21.5587 19.2177 20.0076 18.7742 19.0569 18.0296C19.0758 17.9852 19.0972 17.9421 19.1213 17.9002C19.6959 16.8978 20.8883 17.6148 23.2141 17.6148C24.595 17.6148 25.5764 17.3623 26.2661 17.3664Z" fill="#95B0B2"/>
<path d="M20.162 17.3664C20.1875 17.3661 20.2138 17.3664 20.24 17.3664C20.24 17.3664 19.6521 17.8767 20.24 18.6878C19.7818 18.5056 19.3817 18.2828 19.0571 18.0281C19.076 17.9837 19.0973 17.9407 19.1215 17.8991C19.3548 17.492 19.6902 17.3685 20.162 17.3654V17.3664Z" fill="#95B0B2"/>
<path d="M26.2662 17.3664C26.2407 17.3661 26.2145 17.3664 26.1879 17.3664C26.1879 17.3664 26.7758 17.8767 26.1879 18.6878C26.6464 18.5056 27.0462 18.2828 27.3711 18.0281C27.3522 17.9837 27.3309 17.9407 27.3067 17.8991C27.0735 17.492 26.738 17.3685 26.2662 17.3654V17.3664Z" fill="#95B0B2"/>
<path d="M25.9019 17.1975C26.2422 17.1698 26.5405 17.1702 26.8088 17.2566C27.0767 17.343 27.3051 17.5252 27.467 17.8081C27.8846 18.5367 27.6269 19.537 26.878 20.3355C26.1292 21.134 24.8732 21.7509 23.214 21.7509C21.5551 21.7509 20.2988 21.134 19.5499 20.3355C18.8011 19.537 18.5426 18.5367 18.9603 17.8081C19.1222 17.5252 19.3509 17.343 19.6192 17.2566C19.8875 17.1702 20.1851 17.1698 20.5254 17.1975C21.206 17.2531 22.0699 17.4301 23.214 17.4301C24.358 17.4301 25.2212 17.2531 25.9019 17.1975ZM25.9319 17.5658C25.2912 17.6182 24.3955 17.7997 23.2136 17.7997C22.0318 17.7997 21.1361 17.6182 20.4953 17.5658C20.175 17.5395 19.9217 17.5476 19.7322 17.6084C19.5426 17.6696 19.4065 17.7735 19.2813 17.9921C18.9714 18.5325 19.1467 19.3656 19.8196 20.0826C20.4922 20.8 21.6467 21.3812 23.214 21.3812C24.7816 21.3812 25.9351 20.8003 26.608 20.0826C27.2809 19.3653 27.4562 18.5325 27.1466 17.9921C27.0214 17.7735 26.885 17.6696 26.6951 17.6084C26.5052 17.5476 26.2523 17.5395 25.9319 17.5658Z" fill="#68898C"/>
<path d="M27.2566 17.8834L27.4854 18.1751C26.4861 18.9582 24.9024 19.4027 23.2141 19.4027C21.5255 19.4027 19.9415 18.9582 18.9422 18.1751L19.1706 17.8834C20.0719 18.5899 21.5916 19.032 23.2138 19.032C24.8363 19.0323 26.3553 18.5899 27.2566 17.8834Z" fill="#68898C"/>
<path d="M19.6227 9.76239C20.3844 9.76239 21.1151 10.0999 21.6537 10.7004C22.1923 11.301 22.4949 12.1159 22.4949 12.9651C22.4949 13.8353 22.1773 14.6677 21.6156 15.2714C20.3512 14.6869 18.8938 14.6869 17.6294 15.2714C17.0677 14.6677 16.7501 13.8349 16.7501 12.9651C16.7501 12.1155 17.0527 11.301 17.5913 10.7004C18.1306 10.0999 18.8613 9.76239 19.6227 9.76239Z" fill="white"/>
<path d="M19.6232 9.57739C21.3209 9.57739 22.6804 11.1072 22.6804 12.9658C22.6804 13.8808 22.3475 14.7573 21.7515 15.3977L21.4811 15.1459C22.0089 14.5785 22.3107 13.7905 22.3107 12.9655C22.3107 11.2859 21.0981 9.94708 19.6232 9.94708C18.1483 9.94708 16.9353 11.2863 16.9353 12.9655C16.9353 13.7905 17.2379 14.5785 17.7657 15.1459L17.4946 15.3977C16.8986 14.7573 16.5656 13.8808 16.5656 12.9658C16.5656 11.1072 17.9255 9.57739 19.6232 9.57739Z" fill="#68898C"/>
<path d="M18.8709 12.7622C18.8709 13.6093 19.4028 14.2963 20.0593 14.2963C20.7158 14.2963 21.2478 13.6093 21.2478 12.7622C21.2478 12.3555 21.1226 11.9651 20.8998 11.6776C20.677 11.3898 20.3745 11.2282 20.0593 11.2282C19.7439 11.2282 19.4417 11.3898 19.2189 11.6776C18.9961 11.9651 18.8709 12.3555 18.8709 12.7622Z" fill="#68898C"/>
<path d="M18.5398 12.232C18.5398 12.3775 18.5975 12.517 18.7004 12.6202C18.8032 12.723 18.9431 12.7811 19.0886 12.7811C19.2341 12.7811 19.3736 12.723 19.4768 12.6202C19.5796 12.517 19.6377 12.3775 19.6377 12.232C19.6377 11.9287 19.3918 11.6829 19.0886 11.6829C18.7857 11.6829 18.5398 11.9287 18.5398 12.232Z" fill="white"/>
<path d="M19.6234 14.6488C20.4758 14.6488 21.3275 14.8692 22.091 15.3102C22.1795 15.3613 22.2099 15.4742 22.1588 15.5627C22.1078 15.6512 21.9944 15.6813 21.9063 15.6302C20.4933 14.8142 18.7532 14.8142 17.3402 15.6302C17.2517 15.6813 17.1388 15.6512 17.0874 15.5627C17.0363 15.4742 17.0667 15.3609 17.1552 15.3102C17.9187 14.8692 18.7711 14.6488 19.6234 14.6488Z" fill="#68898C"/>
<path d="M26.8047 9.76239C26.0429 9.76239 25.3123 10.0999 24.7737 10.7004C24.235 11.301 23.9325 12.1159 23.9325 12.9651C23.9325 13.8353 24.2501 14.6677 24.8118 15.2714C26.0762 14.6869 27.5336 14.6869 28.798 15.2714C29.36 14.6677 29.6772 13.8349 29.6772 12.9651C29.6772 12.1155 29.3747 11.301 28.8357 10.7004C28.2971 10.0999 27.5665 9.76239 26.8047 9.76239Z" fill="white"/>
<path d="M26.8048 9.57739C28.5026 9.57739 29.8621 11.1072 29.8621 12.9658C29.8621 13.8808 29.5291 14.7573 28.9331 15.3977L28.6627 15.1459C29.1905 14.5785 29.4927 13.7905 29.4927 12.9655C29.4927 11.2859 28.2801 9.94708 26.8052 9.94708C25.3303 9.94708 24.1177 11.2863 24.1177 12.9655C24.1177 13.7905 24.4195 14.5785 24.9473 15.1459L24.6769 15.3977C24.0809 14.7573 23.748 13.8808 23.748 12.9658C23.748 11.1072 25.1071 9.57739 26.8048 9.57739Z" fill="#68898C"/>
<path d="M27.5566 12.7622C27.5566 13.6093 27.0247 14.2963 26.3682 14.2963C25.7117 14.2963 25.1797 13.6093 25.1797 12.7622C25.1797 12.3555 25.3049 11.9651 25.5277 11.6776C25.7505 11.3898 26.053 11.2282 26.3682 11.2282C26.6833 11.2282 26.9858 11.3898 27.2086 11.6776C27.4314 11.9651 27.5566 12.3555 27.5566 12.7622Z" fill="#68898C"/>
<path d="M27.8882 12.232C27.8882 12.3775 27.8305 12.517 27.7273 12.6202C27.6245 12.723 27.4849 12.7811 27.3391 12.7811C27.1936 12.7811 27.0537 12.723 26.9508 12.6202C26.848 12.517 26.7899 12.3775 26.7899 12.232C26.7899 11.9287 27.0358 11.6829 27.3391 11.6829C27.4846 11.6829 27.6245 11.7406 27.7273 11.8434C27.8301 11.9466 27.8882 12.0861 27.8882 12.232Z" fill="white"/>
<path d="M26.8048 14.6488C27.6572 14.6488 28.5088 14.8692 29.2724 15.3102C29.3609 15.3613 29.3913 15.4742 29.3402 15.5627C29.2892 15.6512 29.1758 15.6813 29.0877 15.6302C27.6747 14.8142 25.935 14.8142 24.5216 15.6302C24.4331 15.6813 24.3202 15.6512 24.2691 15.5627C24.218 15.4742 24.2485 15.3609 24.337 15.3102C25.1005 14.8692 25.9528 14.6488 26.8048 14.6488Z" fill="#68898C"/>
</svg>
